<?xml version="1.0" encoding="utf-8"?>
<!-- Generator: Adobe Illustrator 16.0.0, SVG Export Plug-In . SVG Version: 6.00 Build 0)  -->
<!DOCTYPE svg PUBLIC "-//W3C//DTD SVG 1.1//EN" "http://www.w3.org/Graphics/SVG/1.1/DTD/svg11.dtd">
<svg version="1.1" id="Layer_1" xmlns="http://www.w3.org/2000/svg" xmlns:xlink="http://www.w3.org/1999/xlink" x="0px" y="0px"
	 width="12px" height="12px" viewBox="0 0 12 12" enable-background="new 0 0 12 12" xml:space="preserve">
<path fill="#FFFFFF" d="M7.308,6l4.439-4.44c0.123-0.122,0.19-0.285,0.19-0.459c0-0.173-0.067-0.337-0.19-0.459l-0.388-0.389
	c-0.123-0.122-0.286-0.19-0.459-0.19c-0.176,0-0.337,0.068-0.46,0.19L6,4.692l-4.44-4.44C1.438,0.13,1.274,0.062,1.1,0.062
	c-0.174,0-0.337,0.068-0.459,0.19L0.252,0.641c-0.254,0.253-0.254,0.666,0,0.918L4.692,6l-4.44,4.44
	c-0.122,0.123-0.19,0.285-0.19,0.459c0,0.176,0.068,0.337,0.19,0.46l0.389,0.389c0.122,0.123,0.285,0.189,0.459,0.189
	c0.174,0,0.337-0.066,0.459-0.189L6,7.307l4.44,4.44c0.123,0.123,0.284,0.189,0.46,0.189l0,0c0.173,0,0.336-0.066,0.459-0.189
	l0.388-0.389c0.123-0.123,0.19-0.284,0.19-0.46c0-0.174-0.067-0.336-0.19-0.459L7.308,6z"/>
<rect x="0.062" y="0.062" fill="none" width="11.876" height="11.875"/>
</svg>
