<?xml version="1.0" encoding="utf-8"?>
<!-- Generator: Adobe Illustrator 16.0.0, SVG Export Plug-In . SVG Version: 6.00 Build 0)  -->
<!DOCTYPE svg PUBLIC "-//W3C//DTD SVG 1.1//EN" "http://www.w3.org/Graphics/SVG/1.1/DTD/svg11.dtd">
<svg version="1.1" id="Layer_1" xmlns="http://www.w3.org/2000/svg" xmlns:xlink="http://www.w3.org/1999/xlink" x="0px" y="0px"
	 width="8px" height="15px" viewBox="0 0 8 15" enable-background="new 0 0 8 15" xml:space="preserve">
<path fill="#231F1F" d="M7.662,0.179l-1.9-0.003c-2.133,0-3.513,1.415-3.513,3.604v1.662h-1.91c-0.165,0-0.298,0.134-0.298,0.298
	V8.15c0,0.164,0.134,0.298,0.298,0.298h1.91v6.076c0,0.165,0.134,0.299,0.299,0.299h2.491c0.166,0,0.299-0.134,0.299-0.299V8.448
	H7.57c0.166,0,0.299-0.134,0.299-0.298l0.002-2.409c0-0.079-0.031-0.154-0.088-0.211C7.727,5.474,7.652,5.443,7.572,5.443H5.338
	V4.034c0-0.677,0.162-1.021,1.043-1.021L7.66,3.012c0.166,0,0.299-0.134,0.299-0.298V0.478C7.959,0.313,7.826,0.18,7.662,0.179"/>
<rect y="0.225" fill="none" width="8" height="14.648"/>
</svg>
