<?xml version="1.0" encoding="utf-8"?>
<!-- Generator: Adobe Illustrator 16.0.0, SVG Export Plug-In . SVG Version: 6.00 Build 0)  -->
<!DOCTYPE svg PUBLIC "-//W3C//DTD SVG 1.1//EN" "http://www.w3.org/Graphics/SVG/1.1/DTD/svg11.dtd">
<svg version="1.1" id="Layer_1" xmlns="http://www.w3.org/2000/svg" xmlns:xlink="http://www.w3.org/1999/xlink" x="0px" y="0px"
	 width="16px" height="16px" viewBox="0 0 16 16" enable-background="new 0 0 16 16" xml:space="preserve">
<path fill="#231F1F" d="M15.396,0.604C14.993,0.202,14.511,0,13.948,0H2.052C1.489,0,1.007,0.202,0.604,0.604
	C0.202,1.007,0,1.49,0,2.052v11.896c0,0.563,0.202,1.045,0.604,1.447C1.007,15.799,1.489,16,2.052,16h11.896
	c0.563,0,1.045-0.201,1.447-0.604C15.799,14.993,16,14.511,16,13.948V2.052C16,1.49,15.799,1.007,15.396,0.604 M5.745,5.765
	c0.629-0.607,1.384-0.911,2.266-0.911c0.889,0,1.647,0.304,2.275,0.911c0.629,0.608,0.943,1.342,0.943,2.204
	c0,0.861-0.314,1.595-0.943,2.203c-0.628,0.607-1.386,0.911-2.275,0.911c-0.882,0-1.637-0.304-2.266-0.911
	C5.117,9.564,4.802,8.83,4.802,7.969C4.802,7.107,5.117,6.374,5.745,5.765 M14.188,13.521c0,0.181-0.063,0.332-0.188,0.454
	c-0.125,0.121-0.274,0.182-0.448,0.182H2.417c-0.18,0-0.332-0.061-0.453-0.182c-0.122-0.122-0.183-0.273-0.183-0.454v-6.75H3.25
	C3.111,7.208,3.042,7.663,3.042,8.135c0,1.334,0.486,2.472,1.458,3.412c0.973,0.94,2.143,1.411,3.511,1.411
	c0.903,0,1.736-0.215,2.5-0.646s1.368-1.016,1.813-1.755c0.444-0.74,0.667-1.547,0.667-2.423c0-0.472-0.07-0.926-0.208-1.364h1.405
	V13.521z M14.188,4.219c0,0.201-0.069,0.372-0.208,0.51c-0.139,0.139-0.31,0.208-0.511,0.208h-1.813
	c-0.201,0-0.371-0.069-0.51-0.208c-0.14-0.139-0.209-0.309-0.209-0.51V2.5c0-0.194,0.069-0.363,0.209-0.505
	c0.139-0.143,0.309-0.213,0.51-0.213h1.813c0.201,0,0.372,0.071,0.511,0.213c0.139,0.142,0.208,0.311,0.208,0.505V4.219z"/>
<rect fill="none" width="16" height="16"/>
</svg>
