<?xml version="1.0" encoding="utf-8"?>
<!-- Generator: Adobe Illustrator 16.0.0, SVG Export Plug-In . SVG Version: 6.00 Build 0)  -->
<!DOCTYPE svg PUBLIC "-//W3C//DTD SVG 1.1//EN" "http://www.w3.org/Graphics/SVG/1.1/DTD/svg11.dtd">
<svg version="1.1" id="Layer_1" xmlns="http://www.w3.org/2000/svg" xmlns:xlink="http://www.w3.org/1999/xlink" x="0px" y="0px"
	 width="88px" height="86px" viewBox="0 0 88 86" enable-background="new 0 0 88 86" xml:space="preserve">
<g>
	<path fill="#D4D4D4" d="M12.209,71.542c-0.524,0.524-0.524,1.374,0,1.899c0.896,0.896,1.792,1.73,2.797,2.537
		c0.552,0.497,1.402,0.452,1.899-0.101c0.497-0.552,0.452-1.401-0.1-1.898c-0.028-0.024-0.057-0.049-0.087-0.072
		c-0.896-0.743-1.792-1.541-2.618-2.365C13.576,71.023,12.733,71.023,12.209,71.542"/>
	<path fill="#D4D4D4" d="M1.461,40.489h0.17c0.68,0,1.254-0.508,1.335-1.184c0.143-1.166,0.341-2.34,0.592-3.478
		c0.245-0.702-0.125-1.468-0.827-1.713C2.031,33.87,1.265,34.24,1.02,34.941c-0.036,0.104-0.06,0.212-0.07,0.322
		c-0.269,1.229-0.475,2.474-0.627,3.721C0.226,39.712,0.733,40.382,1.461,40.489"/>
	<path fill="#D4D4D4" d="M6.328,63.447C5.69,63.826,5.48,64.651,5.86,65.29c0,0.001,0.001,0.002,0.002,0.003
		c0.646,1.076,1.345,2.134,2.088,3.146c0.459,0.584,1.304,0.686,1.888,0.227c0.555-0.437,0.678-1.229,0.282-1.813
		c-0.69-0.951-1.345-1.937-1.945-2.94c-0.38-0.639-1.205-0.848-1.843-0.468C6.331,63.445,6.329,63.446,6.328,63.447"/>
	<path fill="#D4D4D4" d="M2.573,54.133c-0.706,0.216-1.106,0.96-0.897,1.667c0.359,1.201,0.771,2.402,1.237,3.586
		c0.279,0.695,1.07,1.032,1.766,0.753c0.696-0.28,1.033-1.07,0.753-1.766c-0.43-1.085-0.825-2.205-1.156-3.335
		c-0.207-0.713-0.954-1.124-1.666-0.917C2.597,54.124,2.585,54.129,2.573,54.133"/>
	<path fill="#D4D4D4" d="M3.639,30.683c0.69,0.273,1.472-0.065,1.746-0.755c0-0.002,0.001-0.005,0.002-0.007
		c0.43-1.093,0.896-2.178,1.443-3.218c0.334-0.663,0.067-1.473-0.596-1.806c-0.664-0.334-1.472-0.067-1.807,0.596
		c-0.564,1.121-1.084,2.277-1.542,3.452C2.616,29.631,2.953,30.408,3.639,30.683"/>
	<path fill="#D4D4D4" d="M1.64,50.52h0.207c0.737-0.093,1.259-0.766,1.166-1.502c0-0.001,0-0.002,0-0.003
		c-0.143-1.166-0.242-2.35-0.287-3.515c-0.027-0.742-0.651-1.322-1.394-1.296c-0.743,0.028-1.323,0.651-1.295,1.395
		c0,1.255,0.143,2.519,0.305,3.766C0.432,50.016,0.982,50.505,1.64,50.52"/>
	<path fill="#D4D4D4" d="M33.714,6.147h0.26c1.157-0.224,2.331-0.395,3.497-0.511c0.742-0.071,1.286-0.732,1.214-1.474
		c-0.072-0.743-0.731-1.287-1.475-1.215c-1.246,0.125-2.501,0.305-3.738,0.547c-0.743,0.069-1.289,0.727-1.219,1.47
		c0.069,0.743,0.728,1.288,1.47,1.219L33.714,6.147z"/>
	<path fill="#D4D4D4" d="M8.901,21.987c0.433,0.001,0.84-0.206,1.094-0.556c0.69-0.95,1.426-1.882,2.197-2.761
		c0.495-0.559,0.442-1.414-0.117-1.909c-0.559-0.495-1.414-0.443-1.909,0.117c-0.825,0.941-1.613,1.936-2.348,2.958
		c-0.436,0.601-0.302,1.442,0.299,1.878c0.229,0.165,0.503,0.254,0.785,0.255V21.987z"/>
	<path fill="#D4D4D4" d="M47.143,5.86h0.205c0.743,0.054,1.39-0.504,1.444-1.246c0.054-0.743-0.504-1.389-1.247-1.443
		c-1.236-0.188-2.5-0.323-3.755-0.395c-0.743-0.045-1.38,0.521-1.425,1.264c-0.045,0.743,0.521,1.381,1.264,1.426
		C44.811,5.556,45.987,5.681,47.143,5.86"/>
	<path fill="#D4D4D4" d="M16.61,14.367c0.896-0.753,1.847-1.47,2.815-2.133c0.598-0.44,0.726-1.282,0.286-1.88
		c-0.421-0.572-1.213-0.718-1.81-0.334c-1.031,0.708-2.044,1.479-3.012,2.277c-0.572,0.476-0.65,1.324-0.175,1.896
		S16.039,14.843,16.61,14.367"/>
	<path fill="#D4D4D4" d="M24.194,9.267c0.199-0.002,0.395-0.047,0.574-0.134c1.058-0.502,2.151-0.959,3.254-1.363
		c0.716-0.197,1.137-0.937,0.94-1.653c-0.197-0.716-0.937-1.137-1.653-0.94c-0.063,0.017-0.124,0.039-0.184,0.065
		c-1.174,0.43-2.349,0.896-3.479,1.461c-0.673,0.313-0.965,1.112-0.651,1.786c0.221,0.477,0.7,0.78,1.225,0.777H24.194z"/>
	<path fill="#D4D4D4" d="M40.258,82.72c-0.742-0.02-1.361,0.566-1.38,1.31c-0.02,0.741,0.566,1.36,1.308,1.38h1.139
		c0.896,0,1.793,0,2.636-0.081c0.742-0.047,1.306-0.687,1.26-1.43c-0.048-0.743-0.688-1.307-1.43-1.26
		C42.616,82.729,41.433,82.756,40.258,82.72"/>
	<path fill="#D4D4D4" d="M78.562,58.786c0.7,0.25,1.47-0.113,1.72-0.813c0.001-0.002,0.001-0.003,0.001-0.004
		c0.422-1.183,0.79-2.394,1.104-3.587c0.184-0.719-0.253-1.452-0.973-1.636c-0.721-0.183-1.452,0.253-1.636,0.973
		c-0.287,1.139-0.636,2.269-1.031,3.371C77.513,57.784,77.875,58.535,78.562,58.786"/>
	<path fill="#D4D4D4" d="M80.794,38.894h0.224c0.733-0.119,1.23-0.81,1.112-1.542c-0.206-1.237-0.466-2.483-0.78-3.693
		c-0.214-0.711-0.965-1.113-1.676-0.898c-0.675,0.204-1.076,0.892-0.924,1.58c0.296,1.129,0.538,2.294,0.735,3.451
		C79.602,38.424,80.151,38.887,80.794,38.894"/>
	<path fill="#D4D4D4" d="M81.798,2.875l-14.28,4.321l-4.805-5.101c-1.225-1.416-3.218-1.888-4.947-1.174h-0.081
		c-1.305,0.537-2.341,1.573-2.878,2.878c-0.135,0.34-0.231,0.695-0.287,1.058l-0.547-0.189c-0.707-0.228-1.466,0.162-1.693,0.87
		c-0.229,0.708,0.161,1.467,0.869,1.695c0.69,0.224,1.381,0.475,2.071,0.735c0.207,0.325,0.45,0.626,0.726,0.896l5.064,4.805
		l-1.452,4.796c-14.203-10.132-33.931-6.831-44.063,7.373C5.364,40.04,8.666,59.768,22.869,69.899s33.931,6.831,44.063-7.373
		C75.01,51.2,74.729,35.92,66.237,24.9l2.294-4.142l5.326,5.02l-1.282,4.24c-0.154,0.466-0.033,0.979,0.313,1.327
		c0,0,2.627,2.6,2.689,2.689c0.621,0.36,1.416,0.148,1.775-0.473c0.006-0.01,0.011-0.02,0.018-0.029l3.505-6.427l6.329-3.451
		c0.655-0.302,0.943-1.08,0.641-1.736c-0.063-0.137-0.15-0.263-0.256-0.37l-2.375-2.475c-0.341-0.34-0.841-0.463-1.3-0.322
		l-4.285,1.3l-5.021-5.325l11.269-6.275c0.656-0.302,0.943-1.08,0.642-1.736c-0.064-0.138-0.15-0.263-0.256-0.371L83.098,3.18
		C82.753,2.849,82.255,2.731,81.798,2.875 M20.913,23.69c5.404-5.402,12.734-8.433,20.376-8.426c0.598,0,1.195,0.018,1.793,0.054
		c5.083,4.688,3.586,8.964,0.179,12.818c-2.01,2.132-4.167,4.121-6.454,5.953c-3.308,2.814-6.392,5.441-7.557,8.067
		c-1.38,3.12-0.367,5.942,5.208,8.409c2.787,1.236,4.303,2.196,4.894,2.922c0.081,0.099,0.162,0,0.144,0
		c-0.018,0-0.054,0-0.179,0.045c-1.35,0.514-2.787,0.761-4.231,0.726c-6.759,0.287-11.572-4.033-15.311-7.377
		c-2.689-2.394-4.921-4.384-7.243-4.402C12.915,35.397,15.9,28.707,20.913,23.69 M70.217,44.11
		c-0.004,12.494-8.036,23.571-19.91,27.458c-0.334-2.102,0.055-4.254,1.103-6.104c1.421-2.281,3.243-4.285,5.379-5.917
		c8.273-6.901,8.739-10.757,9.099-13.724c0.225-1.874,0.395-3.272,4.097-5.307c0.148,1.192,0.223,2.393,0.224,3.594H70.217z
		 M68.541,34.412c0.4,1.128,0.73,2.281,0.985,3.451c-5.638,2.869-5.889,4.913-6.229,7.701c-0.306,2.51-0.699,5.79-8.176,12.029
		c-2.395,1.832-4.431,4.09-6.006,6.661c-1.374,2.427-1.85,5.261-1.345,8.005c-15.55,3.555-31.038-6.17-34.593-21.721
		c-0.406-1.778-0.644-3.591-0.708-5.414c1.426,0,3.272,1.694,5.54,3.71c4.105,3.668,9.358,8.347,17.185,8.069
		c1.844,0.031,3.675-0.317,5.378-1.022c0.719-0.318,1.262-0.934,1.488-1.686c0.191-0.839-0.051-1.718-0.645-2.34
		c-0.843-1.03-2.69-2.25-5.863-3.666c-3.792-1.677-4.617-3.308-3.873-4.976c0.896-2.097,3.783-4.481,6.849-7.171
		c2.388-1.931,4.638-4.028,6.732-6.275c3.747-4.267,5.675-8.92,1.865-14.012c4.233,0.866,8.218,2.677,11.652,5.298l-2.062,6.804
		c-0.151,0.466-0.031,0.978,0.313,1.327c0,0,3.344,3.317,3.452,3.379c0.621,0.36,1.416,0.148,1.775-0.473
		c0.006-0.01,0.011-0.02,0.017-0.029l2.609-4.715C66.423,29.521,67.654,31.899,68.541,34.412 M71.875,13.255
		c-0.63,0.344-0.861,1.134-0.518,1.764c0.005,0.01,0.01,0.02,0.017,0.029c0.054,0.099,6.911,7.395,6.911,7.395
		c0.34,0.36,0.854,0.495,1.326,0.35l4.313-1.3l0.672,0.672l-4.034,2.232l-1.155,0.574c-0.259,0.128-0.468,0.339-0.593,0.601
		l-0.573,1.166l-2.232,4.034l-0.654-0.717l1.3-4.294c0.151-0.503-0.015-1.047-0.421-1.38l-7.073-6.66
		c-0.513-0.504-1.335-0.496-1.838,0.016c-0.013,0.012-0.024,0.025-0.035,0.038c-0.09,0.098-6.454,11.563-6.454,11.563l-1.39-1.39
		L63.78,13.65c0.155-0.506-0.011-1.056-0.421-1.39l-5.63-5.298c-0.622-0.528-0.83-1.4-0.51-2.152
		c0.285-0.651,0.808-1.17,1.461-1.452h0.044c0.743-0.287,1.585-0.071,2.099,0.538l5.378,5.683c0.338,0.363,0.853,0.502,1.326,0.359
		l14.344-4.33l1.39,1.39L71.875,13.255z"/>
	<path fill="#D4D4D4" d="M77.039,62.165c-0.643-0.336-1.436-0.103-1.793,0.528c-0.565,1.031-1.183,2.044-1.847,3.013
		c-0.429,0.608-0.282,1.449,0.327,1.877c0.609,0.429,1.45,0.283,1.878-0.326c0.699-1.04,1.362-2.126,1.973-3.219
		c0.376-0.641,0.162-1.465-0.479-1.841C77.079,62.187,77.059,62.175,77.039,62.165"/>
	<path fill="#D4D4D4" d="M82.525,47.849c0.116-1.246,0.17-2.51,0.17-3.765v-0.18c-0.005-0.739-0.604-1.335-1.345-1.335
		c-0.742-0.01-1.353,0.583-1.362,1.326c0,0.019,0,0.037,0,0.055v0.152c0,1.175-0.054,2.357-0.162,3.531
		c-0.066,0.74,0.479,1.395,1.219,1.462h0.001h0.125C81.88,49.102,82.473,48.557,82.525,47.849"/>
	<path fill="#D4D4D4" d="M30.693,81.259c-0.701-0.247-1.468,0.122-1.715,0.822c-0.246,0.7,0.122,1.468,0.822,1.715
		c0.052,0.018,0.104,0.032,0.158,0.044c1.201,0.341,2.438,0.637,3.675,0.897h0.251c0.742,0.069,1.401-0.478,1.47-1.22
		c0.069-0.742-0.477-1.4-1.22-1.471C32.97,81.85,31.814,81.6,30.693,81.259"/>
	<path fill="#D4D4D4" d="M53.31,80.846c-1.111,0.368-2.259,0.682-3.397,0.897c-0.726,0.163-1.181,0.883-1.018,1.608
		c0.164,0.726,0.884,1.181,1.609,1.019c1.219-0.278,2.447-0.619,3.64-1.005c0.696-0.257,1.053-1.03,0.797-1.727
		c-0.243-0.66-0.953-1.021-1.631-0.828V80.846z"/>
	<path fill="#D4D4D4" d="M21.783,77.439c-0.642-0.376-1.466-0.161-1.842,0.48c-0.376,0.64-0.162,1.465,0.479,1.841
		c1.085,0.638,2.206,1.229,3.344,1.794c0.673,0.316,1.476,0.027,1.793-0.646c0.317-0.673,0.028-1.475-0.645-1.792
		C23.845,78.587,22.796,78.014,21.783,77.439"/>
	<path fill="#D4D4D4" d="M69.518,70.528c-0.807,0.896-1.659,1.686-2.529,2.465c-0.554,0.496-0.602,1.347-0.106,1.9
		c0.495,0.555,1.346,0.604,1.9,0.108c0.896-0.834,1.847-1.721,2.688-2.636c0.502-0.549,0.463-1.399-0.086-1.899
		c-0.539-0.492-1.372-0.465-1.877,0.062H69.518z"/>
	<path fill="#D4D4D4" d="M62.059,76.714c-0.985,0.628-2.018,1.219-3.057,1.792c-0.661,0.34-0.922,1.15-0.582,1.812
		c0.338,0.661,1.149,0.922,1.811,0.582c1.111-0.573,2.213-1.209,3.271-1.882c0.637-0.381,0.845-1.207,0.464-1.844
		c-0.38-0.638-1.206-0.846-1.844-0.464c-0.021,0.012-0.043,0.025-0.063,0.04V76.714z"/>
</g>
<rect x="-152.181" y="-146.235" fill="none" width="392.362" height="378.47"/>
</svg>
