<?xml version="1.0" encoding="utf-8"?>
<!-- Generator: Adobe Illustrator 16.0.0, SVG Export Plug-In . SVG Version: 6.00 Build 0)  -->
<!DOCTYPE svg PUBLIC "-//W3C//DTD SVG 1.1//EN" "http://www.w3.org/Graphics/SVG/1.1/DTD/svg11.dtd">
<svg version="1.1" id="Layer_1" xmlns="http://www.w3.org/2000/svg" xmlns:xlink="http://www.w3.org/1999/xlink" x="0px" y="0px"
	 width="78px" height="75px" viewBox="0 0 78 75" enable-background="new 0 0 78 75" xml:space="preserve">
<rect x="-217" y="-213" fill="none" width="512" height="501"/>
<rect x="-217" y="-213" fill="none" width="512" height="501"/>
<g>
	<path fill="#D4D4D4" d="M32.542,67.06l-0.225,1.099l0.217-1.1c-0.608-0.119-1.198,0.275-1.317,0.884
		c-0.12,0.607,0.275,1.196,0.884,1.317c0.001,0.001,0.019,0.003,0.021,0.003c0.071,0.014,0.142,0.021,0.212,0.021
		c0.527,0,0.998-0.374,1.1-0.912C33.55,67.764,33.151,67.176,32.542,67.06"/>
	<path fill="#D4D4D4" d="M41.118,67.421l0.111,1.115l-0.115-1.115c-0.616,0.063-1.064,0.614-1.001,1.23
		c0.061,0.576,0.547,1.007,1.114,1.007c0.038,0,0.078-0.002,0.117-0.007l0.03-0.003c0.613-0.071,1.049-0.625,0.979-1.238
		S41.732,67.356,41.118,67.421"/>
	<path fill="#D4D4D4" d="M36.824,67.562c0,0-0.016,0-0.016,0c-0.618-0.028-1.134,0.451-1.163,1.07
		c-0.027,0.619,0.458,1.144,1.077,1.171c0.018,0.001,0.035,0.001,0.052,0.001c0.596,0,1.093-0.47,1.119-1.071
		C37.922,68.114,37.443,67.59,36.824,67.562"/>
	<path fill="#D4D4D4" d="M28.399,65.92l-0.014-0.006c-0.583-0.208-1.218,0.097-1.427,0.68c-0.21,0.583,0.1,1.227,0.683,1.438
		c0.125,0.045,0.253,0.065,0.378,0.065c0.46,0,0.892-0.284,1.056-0.741C29.285,66.771,28.982,66.129,28.399,65.92"/>
	<path fill="#D4D4D4" d="M45.352,66.636l0.275,1.086l-0.279-1.085c-0.6,0.153-0.961,0.765-0.807,1.365
		c0.13,0.505,0.585,0.843,1.085,0.843c0.093,0,0.187-0.013,0.281-0.036c0.004-0.002,0.024-0.007,0.029-0.008
		c0.596-0.163,0.944-0.775,0.785-1.37C46.563,66.835,45.948,66.479,45.352,66.636"/>
	<path fill="#D4D4D4" d="M49.405,65.222l0.445,1.028l-0.449-1.027c-0.566,0.246-0.827,0.907-0.579,1.476
		c0.183,0.423,0.596,0.674,1.028,0.674c0.149,0,0.303-0.03,0.446-0.094c0.005-0.002,0.023-0.01,0.028-0.012
		c0.563-0.255,0.811-0.913,0.56-1.478C50.635,65.225,49.972,64.973,49.405,65.222"/>
	<path fill="#D4D4D4" d="M24.115,14.091c0.18,0,0.363-0.043,0.532-0.133c0.546-0.292,0.752-0.971,0.461-1.518
		c-0.292-0.545-0.97-0.753-1.517-0.461l-0.013,0.007c-0.546,0.292-0.747,0.967-0.455,1.515
		C23.324,13.877,23.713,14.091,24.115,14.091"/>
	<path fill="#D4D4D4" d="M11.141,26.618c0.167,0.087,0.345,0.129,0.521,0.129c0.404,0,0.794-0.218,0.995-0.601l0.02-0.039
		c0.273-0.557,0.044-1.229-0.512-1.501c-0.552-0.272-1.219-0.048-1.496,0.5C10.381,25.654,10.593,26.332,11.141,26.618"/>
	<path fill="#D4D4D4" d="M9.562,30.838c0.119,0.041,0.24,0.06,0.36,0.06c0.467,0,0.904-0.295,1.062-0.763l0.015-0.044
		c0.182-0.592-0.15-1.22-0.743-1.401c-0.587-0.182-1.21,0.145-1.398,0.729C8.661,30.004,8.976,30.64,9.562,30.838"/>
	<path fill="#D4D4D4" d="M13.354,22.695c0.199,0.145,0.43,0.214,0.659,0.214c0.346,0,0.688-0.16,0.907-0.462l0.015-0.02
		c0.36-0.504,0.242-1.202-0.26-1.562c-0.503-0.36-1.204-0.245-1.565,0.257l0.903,0.665l-0.907-0.66
		C12.742,21.629,12.853,22.331,13.354,22.695"/>
	<path fill="#D4D4D4" d="M20.307,16.513c0.236,0,0.473-0.074,0.675-0.228c0.5-0.366,0.608-1.067,0.242-1.567
		s-1.068-0.608-1.567-0.243l-0.028,0.021c-0.493,0.374-0.591,1.079-0.216,1.573C19.633,16.36,19.969,16.513,20.307,16.513"/>
	<path fill="#D4D4D4" d="M8.561,47.849c0.148,0.482,0.591,0.791,1.07,0.791c0.109,0,0.221-0.017,0.331-0.051
		c0.588-0.181,0.92-0.805,0.744-1.394c-0.169-0.589-0.779-0.936-1.374-0.773c-0.597,0.163-0.95,0.78-0.787,1.377
		C8.549,47.812,8.557,47.837,8.561,47.849"/>
	<path fill="#D4D4D4" d="M16.919,19.47c0.291,0,0.583-0.113,0.803-0.337c0.438-0.438,0.438-1.148,0-1.586
		c-0.438-0.438-1.148-0.438-1.587,0l-0.019,0.019c-0.434,0.442-0.424,1.151,0.018,1.584C16.352,19.364,16.636,19.47,16.919,19.47"/>
	<path fill="#D4D4D4" d="M9.8,42.958c-0.078-0.609-0.635-1.041-1.245-0.969c-0.614,0.073-1.054,0.632-0.98,1.246l0.006,0.045
		c0.082,0.559,0.56,0.956,1.107,0.956c0.054,0,0.108-0.004,0.164-0.011C9.463,44.136,9.886,43.569,9.8,42.958"/>
	<path fill="#D4D4D4" d="M8.392,39.746c0.011,0,0.022,0,0.033,0c0.604,0,1.103-0.48,1.121-1.088l0.001-0.049
		c0-0.62-0.502-1.122-1.122-1.122c-0.615,0-1.114,0.494-1.122,1.107C7.287,39.213,7.773,39.728,8.392,39.746"/>
	<path fill="#D4D4D4" d="M8.637,35.248c0.067,0.012,0.133,0.018,0.199,0.018c0.533,0,1.005-0.381,1.103-0.924
		c0.003-0.016,0.005-0.032,0.007-0.049c0.091-0.613-0.333-1.183-0.946-1.272c-0.606-0.09-1.173,0.327-1.271,0.93
		C7.624,34.558,8.029,35.139,8.637,35.248"/>
	<path fill="#D4D4D4" d="M61.547,23.049c0.217,0.315,0.565,0.484,0.923,0.484c0.218,0,0.44-0.064,0.634-0.198
		c0.511-0.351,0.64-1.05,0.289-1.56l-0.932,0.624l0.929-0.629c-0.349-0.513-1.046-0.646-1.559-0.299s-0.646,1.044-0.299,1.558
		L61.547,23.049z"/>
	<path fill="#D4D4D4" d="M67.274,34.335c-0.616,0.069-1.059,0.625-0.99,1.24l0.007,0.049c0.08,0.559,0.561,0.962,1.108,0.962
		c0.053,0,0.106-0.003,0.16-0.011c0.609-0.087,1.032-0.647,0.954-1.255C68.443,34.707,67.886,34.267,67.274,34.335"/>
	<path fill="#D4D4D4" d="M65.382,31.171l0.004,0.014c0.144,0.489,0.59,0.806,1.075,0.806c0.104,0,0.211-0.015,0.316-0.046
		c0.596-0.175,0.936-0.798,0.761-1.393l-0.005-0.015c-0.175-0.595-0.798-0.935-1.393-0.76
		C65.547,29.953,65.207,30.576,65.382,31.171"/>
	<path fill="#D4D4D4" d="M63.797,26.977c0.196,0.398,0.596,0.63,1.012,0.63c0.166,0,0.333-0.037,0.492-0.115
		c0.556-0.273,0.787-0.941,0.513-1.498l-1.017,0.474l1.016-0.476c-0.264-0.561-0.931-0.802-1.492-0.539
		c-0.561,0.263-0.803,0.931-0.539,1.492L63.797,26.977z"/>
	<path fill="#D4D4D4" d="M58.721,19.546c0.22,0.224,0.511,0.337,0.801,0.337c0.284,0,0.568-0.106,0.785-0.321
		c0.44-0.43,0.449-1.132,0.026-1.575c-0.42-0.453-1.128-0.48-1.583-0.061c-0.454,0.42-0.482,1.13-0.063,1.585L58.721,19.546z"/>
	<path fill="#D4D4D4" d="M67.639,39.02c-0.616-0.017-1.132,0.467-1.153,1.083c-0.029,0.614,0.443,1.137,1.058,1.171
		c0.021,0.001,0.042,0.002,0.063,0.002c0.591,0,1.086-0.461,1.119-1.06l0.001-0.047C68.745,39.551,68.257,39.037,67.639,39.02"/>
	<path fill="#D4D4D4" d="M51.549,14.039l0.026,0.015c0.167,0.088,0.346,0.131,0.523,0.131c0.399,0,0.784-0.215,0.988-0.592
		c0.292-0.543,0.085-1.224-0.456-1.518l-0.543,0.981l0.539-0.983c-0.543-0.298-1.226-0.099-1.523,0.445
		C50.807,13.059,51.005,13.741,51.549,14.039"/>
	<path fill="#D4D4D4" d="M55.342,16.499l0.019,0.013c0.202,0.153,0.439,0.228,0.677,0.228c0.338,0,0.673-0.153,0.894-0.444
		c0.374-0.494,0.277-1.197-0.215-1.572l-0.008-0.005c-0.491-0.377-1.196-0.286-1.572,0.206
		C54.758,15.416,54.851,16.121,55.342,16.499"/>
	<path fill="#D4D4D4" d="M76.961,56l-5.265-5.276c-0.449-0.448-1.045-0.694-1.679-0.694c-0.633,0-1.229,0.246-1.676,0.694
		l-0.123,0.123l-0.346-0.346c-0.426-0.429-0.757-0.926-0.981-1.468c-0.021-0.072-0.046-0.144-0.08-0.208
		c-0.172-0.483-0.261-0.997-0.261-1.524v-1.492c0.102,0.053,0.213,0.093,0.333,0.113c0.064,0.011,0.128,0.016,0.19,0.016
		c0.532,0,1.003-0.38,1.102-0.919c0.12-0.606-0.273-1.196-0.88-1.317c-0.267-0.053-0.531-0.007-0.752,0.113
		c-0.069-1.593-0.721-3.082-1.854-4.217l-5.107-5.118c-1.146-1.148-2.671-1.78-4.292-1.78c-1.255,0-2.45,0.38-3.458,1.084
		l-0.542-0.544V20.411c0-1.546-0.563-3.039-1.581-4.2c-0.725-0.826-1.124-1.887-1.124-2.987v-0.94h0.078
		c1.308,0,2.37-1.063,2.37-2.372V2.45c0-1.309-1.063-2.372-2.37-2.372H27.711c-1.308,0-2.371,1.063-2.371,2.372v7.461
		c0,1.308,1.063,2.372,2.371,2.372h0.173v0.492c0,1.209-0.47,2.346-1.324,3.201l-2.261,2.265c-1.2,1.202-1.86,2.8-1.86,4.5v7.236
		c0,0.983,0.236,1.912,0.651,2.734c-1.487,0.086-2.873,0.706-3.935,1.769l-5.108,5.118c-1.2,1.202-1.861,2.8-1.861,4.499v3.204
		c0,1.209-0.47,2.347-1.323,3.2l-0.341,0.342c-0.002,0.001-0.003,0.003-0.004,0.004l-0.122-0.123
		c-0.449-0.448-1.043-0.694-1.677-0.694c-0.633,0-1.229,0.246-1.677,0.694L1.775,56c-0.923,0.924-0.923,2.429,0,3.354l1.803,1.805
		c0.438,0.439,1.148,0.439,1.586,0.002s0.439-1.147,0.001-1.587l-1.802-1.806c-0.051-0.051-0.051-0.134,0-0.184l5.266-5.274
		c0.049-0.05,0.129-0.051,0.178,0l0.916,0.916h0l12.5,12.521l1.4,1.403c0.05,0.051,0.05,0.133,0,0.184l-5.265,5.275
		c-0.05,0.049-0.13,0.049-0.179,0l-9.838-9.854c-0.438-0.439-1.148-0.439-1.586-0.002c-0.438,0.438-0.439,1.148-0.002,1.586
		l9.838,9.855c0.448,0.449,1.044,0.695,1.677,0.695c0.634,0,1.229-0.246,1.677-0.695l5.266-5.275c0.923-0.924,0.923-2.429,0-3.354
		l-0.058-0.057l0.665-0.667c0.776-0.776,1.806-1.243,2.902-1.314c1.542-0.101,2.992-0.757,4.083-1.853l4.837-4.847
		c1.395-0.366,2.481-1.502,2.777-2.926c0.496,0.237,1.052,0.37,1.639,0.37c2.109,0,3.826-1.719,3.826-3.831v-2.663
		c0.481,0.22,1.019,0.345,1.581,0.345c2.11,0,3.827-1.718,3.827-3.831v-7.874l3.449,3.467c0.219,0.22,0.507,0.33,0.796,0.33
		c0.285,0,0.571-0.108,0.791-0.327c0.438-0.437,0.44-1.146,0.004-1.585l-2.877-2.892c0.557-0.306,1.185-0.47,1.837-0.47
		c1.021,0,1.981,0.399,2.704,1.123l5.107,5.116c0.777,0.778,1.206,1.813,1.206,2.915v3.204c0,1.807,0.702,3.507,1.978,4.785
		l0.349,0.349l-1.627,1.63l-9.84,9.856l-0.549-0.549c-0.006-0.006-0.01-0.012-0.017-0.016l-0.096-0.098
		c-1.162-1.164-2.705-1.863-4.345-1.97c-0.997-0.064-1.935-0.489-2.645-1.2l-3.685-3.666c-0.441-0.437-1.151-0.435-1.587,0.004
		c-0.438,0.44-0.436,1.15,0.004,1.587l3.684,3.662c1.091,1.096,2.542,1.752,4.084,1.853c1.095,0.071,2.125,0.538,2.901,1.314
		l0.055,0.056c0.029,0.032,0.06,0.063,0.092,0.093l0.518,0.518l-0.057,0.058c-0.923,0.925-0.923,2.429,0,3.354l5.265,5.275
		c0.447,0.449,1.043,0.695,1.677,0.695c0.633,0,1.229-0.246,1.678-0.695l14.816-14.842C77.884,58.428,77.884,56.924,76.961,56
		 M67.302,44.846l-0.021-0.003l-0.204-0.042L67.302,44.846z M31.215,60.091c-0.706,0.709-1.644,1.134-2.641,1.198
		c-1.64,0.106-3.182,0.806-4.344,1.97l-0.662,0.662l-0.595-0.597c-0.008-0.007-0.016-0.016-0.023-0.022L12.102,52.435l0.348-0.349
		c1.276-1.278,1.979-2.979,1.979-4.785v-3.204c0-1.102,0.427-2.137,1.205-2.915l5.108-5.116c0.722-0.724,1.683-1.123,2.704-1.123
		c0.655,0,1.285,0.165,1.843,0.474l-2.881,2.886c-0.438,0.438-0.438,1.148,0.001,1.586c0.219,0.219,0.506,0.328,0.792,0.328
		c0.288,0,0.574-0.11,0.794-0.329l3.441-3.448v14.002c0,2.112,1.716,3.831,3.826,3.831c0.594,0,1.158-0.137,1.659-0.38
		c0.229,1.11,0.939,2.049,1.901,2.583L31.215,60.091z M49.047,44.294c0,0.875-0.711,1.588-1.584,1.588
		c-0.871,0-1.581-0.713-1.581-1.588V31.782c0-0.619-0.502-1.122-1.121-1.122c-0.62,0-1.122,0.502-1.122,1.122v18.661
		c0,0.875-0.71,1.587-1.583,1.587c-0.783,0-1.434-0.575-1.56-1.325V31.77c0-0.62-0.501-1.122-1.121-1.122
		c-0.199,0-0.387,0.053-0.549,0.144c-0.354,0.188-0.596,0.561-0.596,0.991v18.66c0,0.143,0.008,0.281,0.023,0.421v2.261
		c0,0.874-0.71,1.586-1.583,1.586c-0.872,0-1.582-0.712-1.582-1.586V31.756c0-0.619-0.503-1.122-1.122-1.122
		c-0.62,0-1.123,0.502-1.123,1.122v18.687c0,0.875-0.709,1.588-1.582,1.588c-0.873,0-1.583-0.713-1.583-1.588V29.579
		c0-0.62-0.502-1.123-1.122-1.123c-0.62,0-1.122,0.502-1.122,1.123v3.859c-0.094,0.031-0.185,0.073-0.27,0.129
		c-1.45-0.545-2.485-1.948-2.485-3.59v-7.236c0-1.101,0.428-2.136,1.205-2.915l2.262-2.266c1.276-1.278,1.979-2.978,1.979-4.785
		v-0.492h2.255c0.62,0,1.122-0.502,1.122-1.122c0-0.62-0.502-1.122-1.122-1.122h-4.671c-0.07,0-0.128-0.058-0.128-0.128V2.45
		c0-0.071,0.058-0.129,0.128-0.129h20.951c0.072,0,0.128,0.058,0.128,0.129v7.461c0,0.071-0.056,0.128-0.128,0.128H37.648
		c-0.619,0-1.122,0.502-1.122,1.122c0,0.619,0.502,1.122,1.122,1.122h8.694v0.94c0,1.645,0.598,3.23,1.681,4.467
		c0.659,0.752,1.024,1.718,1.024,2.72V44.294z M75.373,57.769L60.557,72.61c-0.024,0.025-0.054,0.037-0.09,0.037
		c-0.034,0-0.063-0.012-0.09-0.037l-5.264-5.275c-0.052-0.051-0.052-0.133,0-0.184l0.847-0.851h0.001l8.6-8.614l5.368-5.376
		c0.049-0.051,0.13-0.051,0.179,0l5.266,5.274C75.424,57.635,75.424,57.718,75.373,57.769"/>
	<path fill="#D4D4D4" d="M31.263,4.984c-0.659,0-1.194,0.537-1.194,1.196s0.536,1.196,1.194,1.196s1.194-0.537,1.194-1.196
		S31.921,4.984,31.263,4.984"/>
	<path fill="#D4D4D4" d="M70.385,56.112c-0.659,0-1.194,0.538-1.194,1.197c0,0.66,0.535,1.196,1.194,1.196
		c0.658,0,1.193-0.536,1.193-1.196C71.578,56.65,71.043,56.112,70.385,56.112"/>
	<path fill="#D4D4D4" d="M19.774,67.556c0-0.66-0.536-1.196-1.194-1.196c-0.659,0-1.194,0.536-1.194,1.196
		c0,0.659,0.535,1.196,1.194,1.196C19.238,68.752,19.774,68.215,19.774,67.556"/>
</g>
<rect x="-217" y="-213" fill="none" width="512" height="501"/>
</svg>
