<?xml version="1.0" encoding="utf-8"?>
<!-- Generator: Adobe Illustrator 16.0.0, SVG Export Plug-In . SVG Version: 6.00 Build 0)  -->
<!DOCTYPE svg PUBLIC "-//W3C//DTD SVG 1.1//EN" "http://www.w3.org/Graphics/SVG/1.1/DTD/svg11.dtd">
<svg version="1.1" id="Layer_1" xmlns="http://www.w3.org/2000/svg" xmlns:xlink="http://www.w3.org/1999/xlink" x="0px" y="0px"
	 width="52px" height="84px" viewBox="0 0 52 84" enable-background="new 0 0 52 84" xml:space="preserve">
<path fill="#D4D4D4" d="M145.785-154.558c0.961,0.324,1.938,0.476,2.903,0.476c3.758,0,7.261-2.363,8.53-6.121
	c2.07-6.109,8.75-9.398,14.849-7.324c7.522,2.551,15.589,2.027,22.715-1.476c7.121-3.516,12.445-9.586,15.003-17.114
	c1.603-4.703-0.921-9.828-5.632-11.429c-4.731-1.614-9.832,0.925-11.435,5.636c-1.012,2.965-3.108,5.364-5.912,6.742
	c-2.803,1.375-5.975,1.586-8.946,0.567c-15.517-5.234-32.446,3.09-37.707,18.598C138.56-161.281,141.071-156.164,145.785-154.558"/>
<g>
	<path fill="#D4D4D4" d="M34.824,29.761c0.12,0.041,0.246,0.06,0.366,0.06c0.478,0,0.923-0.299,1.084-0.777
		c0.358-1.051,1.505-1.615,2.555-1.259c2.246,0.76,4.697-0.445,5.458-2.692c0.203-0.597-0.117-1.249-0.715-1.453
		c-0.601-0.202-1.249,0.118-1.453,0.717c-0.356,1.052-1.502,1.616-2.555,1.26c-2.242-0.757-4.695,0.446-5.458,2.692
		C33.904,28.905,34.225,29.557,34.824,29.761"/>
	<path fill="#D4D4D4" d="M37.532,21.784c0.121,0.042,0.246,0.061,0.366,0.061c0.478,0,0.923-0.3,1.085-0.777
		c0.173-0.51,0.533-0.921,1.017-1.16c0.482-0.238,1.028-0.272,1.538-0.1c2.245,0.76,4.695-0.445,5.458-2.693
		c0.203-0.597-0.119-1.249-0.716-1.453c-0.599-0.206-1.249,0.118-1.452,0.717c-0.356,1.053-1.5,1.618-2.554,1.26
		c-1.09-0.37-2.258-0.294-3.287,0.215c-1.03,0.508-1.801,1.389-2.171,2.478C36.611,20.93,36.933,21.581,37.532,21.784"/>
	<rect x="-1.733" y="-9.75" fill="none" width="53.229" height="97.059"/>
	<polygon fill="none" points="0.069,0.792 0.196,38.776 51.496,38.776 51.496,0.792 	"/>
	<g>
		<path fill="#D4D4D4" d="M47.433,32.734l1.87-1.589c0-0.006,0.002-0.013,0.002-0.021c0.031-0.528-0.212-1.021-0.647-1.321
			c-0.199-0.136-0.424-0.214-0.653-0.244c2.274-7.391,3.522-14.632,3.701-21.529c0.056-2.169-1.004-5.065-3.142-6.406
			c-1.025-0.644-2.705-1.174-4.887-0.052c-3.42,1.764-5.864,6.953-7.829,11.124c-0.112,0.24-0.224,0.475-0.333,0.708
			c-0.435-1.995-1.753-3.702-3.628-4.592c-0.442-2.125-2.127-3.789-4.245-4.221c-0.022-0.118-0.051-0.236-0.086-0.354
			c-0.437-1.49-1.752-2.612-3.273-2.792c-0.857-0.102-1.707,0.075-2.432,0.5c-0.619-0.344-1.313-0.528-2.024-0.528
			c-1.99,0-3.663,1.389-4.099,3.247c-2.176,0.592-3.772,2.589-3.789,4.911c-2.482,0.641-4.292,2.884-4.292,5.553
			c0,0.708,0.133,1.408,0.389,2.069c-0.645,0.795-1.001,1.792-1.001,2.836c0,0.628,0.128,1.232,0.373,1.791
			c-1.143-1.248-2.752-2.268-4.56-2.201c-0.632,0.02-1.128,0.548-1.109,1.18c0.02,0.619,0.528,1.109,1.144,1.109
			c0.039,0.001,0.074-0.002,0.111-0.002c1.073,0,2.07,0.709,2.795,1.533c-1.815,0.523-4.004,1.375-5.025,3.3
			c-0.615,1.162-0.687,2.587-0.277,4.219c-0.198,0.331-0.307,0.715-0.287,1.125l2.076,0.627 M36.447,16.677
			c0.454-0.846,0.948-1.895,1.472-3.006c1.721-3.653,4.078-8.657,6.806-10.064c0.996-0.513,1.854-0.524,2.622-0.044
			c1.327,0.833,2.108,2.936,2.07,4.408c-0.176,6.768-1.412,13.889-3.676,21.169c-0.075,0.239-0.239,0.722-0.474,1.385l-1.95,0.866
			c-0.043,0.02-0.084,0.041-0.125,0.065c-0.563,0.337-1.194,0.504-1.827,0.511c-0.631-0.007-1.262-0.174-1.825-0.511l-0.816-0.49
			c-0.938-0.563-1.99-0.845-3.043-0.845c-0.012,0-0.023,0.002-0.038,0.002c-1.063-0.007-2.131,0.271-3.082,0.842l-0.814,0.49
			c-0.454,0.272-0.957,0.405-1.465,0.462c0.027-0.099,0.062-0.197,0.091-0.295c0.313-1.065,0.65-2.117,1.003-3.159
			c0.134-0.396,0.273-0.79,0.413-1.183c0.295-0.828,0.602-1.645,0.921-2.456c0.142-0.363,0.28-0.729,0.427-1.089
			C34.135,21.303,35.236,18.941,36.447,16.677 M21.856,19.392c0.133-0.172,0.264-0.338,0.388-0.501c0-0.002,0.001-0.003,0.002-0.004
			c0.09-0.12,0.169-0.245,0.235-0.37c0.282-0.53,0.348-1.125,0.218-1.707l4.778-1.044c0.032,0.147,0.066,0.292,0.121,0.427
			c0.213,0.524,0.596,0.96,1.128,1.265c0.175,0.096,0.356,0.192,0.544,0.292c0.154,0.081,0.31,0.166,0.465,0.25
			c0.074,0.04,0.149,0.08,0.224,0.122c0.137,0.077,0.269,0.161,0.401,0.245c0.113,0.07,0.226,0.142,0.336,0.219
			c0.126,0.088,0.248,0.186,0.368,0.284c0.107,0.087,0.209,0.183,0.31,0.279c0.108,0.106,0.216,0.215,0.316,0.334
			c0.176,0.21,0.346,0.429,0.483,0.691c-0.485,1.071-0.941,2.165-1.384,3.267c-0.068,0.17-0.142,0.337-0.209,0.507
			c-1.254,0.319-2.467,0.914-3.964,1.979c-1.886,1.341-3.291,1.697-5.605,1.361l-0.695-3.181
			C19.846,21.955,20.868,20.652,21.856,19.392 M27.531,12.44c0.03-0.005,0.061-0.009,0.09-0.009c0.217,0,0.419,0.155,0.466,0.372
			c0.037,0.165-0.024,0.294-0.066,0.357c-0.04,0.062-0.13,0.171-0.294,0.206l-6.323,1.384c-0.252,0.055-0.508-0.113-0.563-0.362
			c-0.055-0.25,0.111-0.508,0.362-0.563l3.359-0.734L27.531,12.44z M23.833,30.146c-0.087,0.005-0.175,0.007-0.262,0.017
			c-0.624,0.063-1.24,0.221-1.824,0.484l-0.219-1.001c0.33,0.027,0.659,0.055,0.966,0.055c1.997,0,3.604-0.595,5.45-1.909
			c0.582-0.415,1.098-0.728,1.587-0.988c-0.105,0.299-0.209,0.596-0.312,0.896c-0.073,0.215-0.151,0.426-0.224,0.643
			c-0.336,1.019-0.656,2.045-0.955,3.082l-0.761-0.456c-0.938-0.563-1.991-0.845-3.043-0.845c-0.014,0-0.028,0.002-0.042,0.002
			C24.073,30.125,23.953,30.138,23.833,30.146 M10.141,18.308l0.75-0.618l-0.486-0.839c-0.305-0.526-0.466-1.122-0.466-1.724
			c0-1.854,1.452-3.366,3.307-3.444l1.39-0.059l-0.324-1.353c-0.055-0.227-0.083-0.45-0.083-0.662c0-1.474,1.151-2.716,2.621-2.828
			l1.058-0.081V5.563c0.033-1.029,0.881-1.856,1.919-1.856c0.597,0,1.026,0.272,1.279,0.501l0.802,0.725l0.769-0.76
			c0.353-0.348,0.837-0.51,1.336-0.454c0.613,0.072,1.167,0.551,1.345,1.166c0.061,0.206,0.079,0.405,0.054,0.608L25.28,6.77h1.288
			c1.646,0,3.021,1.286,3.136,2.927l0.051,0.752l0.711,0.25c1.788,0.629,2.966,2.321,2.926,4.216
			c-0.018,0.81-0.278,1.589-0.751,2.272c-0.766-0.65-1.591-1.088-2.285-1.454c-0.179-0.095-0.353-0.186-0.529-0.284
			c-0.049-0.028-0.108-0.075-0.128-0.196c-0.028-0.165,0.034-0.363,0.158-0.508c0.499-0.579,0.699-1.369,0.538-2.114L30.256,12
			c-0.139-0.637-0.52-1.18-1.068-1.533c-0.549-0.352-1.201-0.47-1.836-0.33l-0.308,0.067c-0.003,0.001-0.007,0-0.01,0.001
			l-3.36,0.735l-3.278,0.715c-0.635,0.139-1.179,0.518-1.532,1.068c-0.353,0.548-0.469,1.202-0.331,1.837l0.069,0.311v0.003
			c0,0.001,0.001,0.002,0.001,0.005l0.068,0.311c0.166,0.762,0.695,1.404,1.416,1.713c0.178,0.076,0.327,0.222,0.379,0.37
			c0.03,0.085,0.013,0.128-0.054,0.238v0.001c-0.114,0.152-0.236,0.307-0.36,0.466c-0.126,0.16-0.257,0.329-0.39,0.503
			c-0.044,0.058-0.087,0.119-0.131,0.178c-0.095,0.13-0.19,0.261-0.283,0.399c-0.052,0.075-0.101,0.151-0.152,0.229
			c-0.087,0.134-0.17,0.272-0.253,0.414c-0.047,0.083-0.094,0.164-0.14,0.25c-0.086,0.16-0.164,0.329-0.241,0.501
			c-0.033,0.073-0.068,0.143-0.098,0.219c-0.101,0.25-0.19,0.511-0.261,0.786c-0.011,0.043-0.016,0.09-0.026,0.135
			c-0.055,0.234-0.1,0.475-0.128,0.727c-0.011,0.101-0.014,0.206-0.021,0.31c-0.009,0.135-0.026,0.263-0.026,0.404
			c-0.005-0.006-0.01-0.012-0.014-0.017c-0.016-0.021-0.032-0.04-0.047-0.06c-0.199-0.263-0.398-0.504-0.598-0.733
			c-0.063-0.072-0.127-0.141-0.191-0.21c-0.168-0.182-0.337-0.353-0.506-0.513c-0.055-0.052-0.11-0.107-0.166-0.158
			c-0.214-0.191-0.43-0.366-0.646-0.522c-0.061-0.043-0.123-0.08-0.184-0.121c-0.163-0.109-0.325-0.21-0.49-0.299
			c-0.08-0.044-0.159-0.085-0.24-0.125c-0.17-0.083-0.342-0.154-0.515-0.216c-0.057-0.021-0.114-0.048-0.172-0.067
			c-0.187-0.059-0.375-0.107-0.566-0.143c-0.022-0.004-0.043-0.002-0.065-0.005c-0.039-0.007-0.076-0.022-0.116-0.028
			c-0.133-0.02-0.259-0.012-0.389-0.021c-0.091-0.006-0.182-0.025-0.274-0.025c-0.027,0-0.056,0.007-0.084,0.007
			c-0.178,0.002-0.35,0.022-0.522,0.044c-0.085,0.011-0.171,0.018-0.257,0.034c-0.226,0.042-0.444,0.099-0.661,0.167
			c-0.033,0.01-0.065,0.018-0.099,0.03c-0.569,0.193-1.11,0.467-1.616,0.798c-0.104-0.258-0.159-0.535-0.159-0.82
			C9.325,19.362,9.623,18.734,10.141,18.308 M2.787,27.812c0.484-0.912,1.66-1.608,3.701-2.191c0.955-0.272,1.841-0.782,2.56-1.469
			c0.326-0.312,0.631-0.577,0.927-0.817c0.922-0.75,1.718-1.158,2.438-1.25c0.017-0.001,0.032-0.005,0.048-0.006
			c0.228-0.025,0.449-0.018,0.663,0.02c0.056,0.01,0.113,0.029,0.17,0.044c0.106,0.026,0.211,0.053,0.318,0.096
			c0.069,0.026,0.137,0.066,0.207,0.098c0.1,0.048,0.198,0.092,0.298,0.152c0.078,0.047,0.155,0.108,0.233,0.162
			c0.093,0.065,0.186,0.125,0.279,0.2c0.087,0.07,0.174,0.155,0.261,0.233c0.087,0.079,0.174,0.151,0.261,0.239
			c0.097,0.097,0.193,0.21,0.291,0.32c0.079,0.088,0.158,0.169,0.238,0.264c0.108,0.13,0.218,0.279,0.328,0.423
			c0.07,0.092,0.139,0.174,0.208,0.271c0.125,0.174,0.25,0.367,0.376,0.56c0.056,0.084,0.112,0.161,0.166,0.248
			c0.182,0.287,0.365,0.593,0.55,0.917c0.842,1.487,1.122,3.684,0.755,5.596c-0.061-0.006-0.121-0.014-0.181-0.024
			c-0.436-0.074-0.856-0.214-1.239-0.443l-0.816-0.49c-0.938-0.563-1.99-0.845-3.042-0.845c-0.013,0-0.025,0.002-0.039,0.002
			c-1.064-0.007-2.131,0.271-3.082,0.842l-0.397,0.238c-0.693,0.416-1.469,0.625-2.245,0.631c-0.778-0.006-1.552-0.215-2.245-0.631
			l-1.54-0.925c0,0-0.001,0-0.001-0.001c-0.203-0.12-0.421-0.203-0.646-0.244C2.413,29.128,2.478,28.396,2.787,27.812
			 M19.062,34.228c0.013-0.001,0.024-0.008,0.038-0.009c0.782-0.087,1.549-0.334,2.256-0.737c0.066-0.024,0.138-0.025,0.2-0.062
			l0.816-0.49c0.563-0.338,1.193-0.506,1.826-0.513c0.632,0.007,1.262,0.174,1.827,0.513l0.816,0.49
			c0.866,0.519,1.83,0.787,2.8,0.828c0.02,0,0.04,0.003,0.06,0.003c0.333,0.01,0.668,0,1.001-0.047
			c0.189-0.024,0.373-0.072,0.561-0.115c0.089-0.021,0.181-0.041,0.271-0.067c0.507-0.14,1.006-0.325,1.469-0.603l0.816-0.491
			c0.563-0.338,1.194-0.505,1.825-0.512c0.632,0.007,1.264,0.174,1.828,0.512l0.815,0.491c0.946,0.566,2.006,0.844,3.066,0.84
			c0.018,0,0.035,0.003,0.053,0.003c1.028,0,2.058-0.268,2.979-0.806l2.246-0.999c0.049-0.021,0.083-0.063,0.127-0.09l0.176-0.078
			l-1.779,0.305 M4.562,32.573L2.53,32.57l0.996,0.598c1.08,0.648,2.292,0.966,3.5,0.959c1.21,0.007,2.421-0.311,3.5-0.959
			l0.397-0.238c0.563-0.338,1.194-0.506,1.826-0.513c0.631,0.007,1.262,0.174,1.826,0.513l0.816,0.49"/>
		<path fill="#D4D4D4" d="M15.176,31.051H1.982c-0.911,0-1.649,0.692-1.649,1.545v6.183c0,0.854,0.739,1.546,1.649,1.546h1.755
			l2.942,41.833c0.058,0.813,0.777,1.444,1.646,1.444h33.493c0.871,0.001,1.592-0.631,1.649-1.444l2.939-41.833h1.754
			c0.912,0,1.65-0.692,1.65-1.546v-6.183c0-0.853-0.738-1.545-1.65-1.545H34.968 M31.669,31.051H18.475 M5.281,37.233H3.631v-3.091
			h42.881v3.091H5.281z M43.102,40.325l-2.827,40.186H9.869L7.042,40.325H43.102z"/>
	</g>
	<rect x="26.722" y="43.416" fill="#D4D4D4" width="3.298" height="34.004"/>
	<rect x="20.124" y="43.416" fill="#D4D4D4" width="3.298" height="34.004"/>
	<polygon fill="#D4D4D4" points="11.88,43.486 15.176,43.346 16.826,77.351 13.53,77.491 	"/>
	<polygon fill="#D4D4D4" points="33.319,77.351 34.97,43.346 38.265,43.486 36.614,77.491 	"/>
	<rect x="-1.733" y="-9.75" fill="none" width="53.508" height="97.059"/>
</g>
</svg>
