<?xml version="1.0" encoding="utf-8"?>
<!-- Generator: Adobe Illustrator 16.0.0, SVG Export Plug-In . SVG Version: 6.00 Build 0)  -->
<!DOCTYPE svg PUBLIC "-//W3C//DTD SVG 1.1//EN" "http://www.w3.org/Graphics/SVG/1.1/DTD/svg11.dtd">
<svg version="1.1" id="Layer_1" xmlns="http://www.w3.org/2000/svg" xmlns:xlink="http://www.w3.org/1999/xlink" x="0px" y="0px"
	 width="61px" height="79px" viewBox="0 0 61 79" enable-background="new 0 0 61 79" xml:space="preserve">
<path fill="#D4D4D4" d="M1.72,44.684c0.987,0.124,1.981,0.182,2.976,0.179c9.738,0,19.54-5.46,23.356-7.819l-4.75,41.805h14.926
	l-4.705-41.561c4.007,2.714,13.945,8.689,23.837,8.689c0.642,0,1.281,0,1.921-0.074l0.63-0.052l0.563-1.272l-0.391-0.505
	c-7.428-9.557-22.531-12.927-25.479-13.511c-0.181-0.395-0.424-0.758-0.713-1.081c0.654-2.936,3.638-18.122-2.133-28.769
	l-0.304-0.562h-1.42l-0.31,0.562c-5.753,10.663-2.775,25.833-2.131,28.769c-0.249,0.28-0.462,0.585-0.63,0.917
	c-2.978,0.455-18.211,3.19-26.034,12.424l-0.404,0.482l0.494,1.301L1.72,44.684z M34.942,32.813
	c3.746,0.834,15.412,3.905,22.142,11.031c-9.792-0.135-19.953-6.644-23.097-8.838c0.52-0.624,0.854-1.382,0.949-2.193H34.942z
	 M30.781,34.366c-1.147,0.002-2.078-0.922-2.085-2.068c-0.001-1.147,0.926-2.078,2.072-2.085c1.146-0.002,2.076,0.924,2.079,2.071
	v0.009c0,1.142-0.929,2.073-2.071,2.073H30.781z M35.863,76.695H25.691l0.269-2.409h9.624L35.863,76.695z M26.205,72.183
	l4.057-35.707c0.169,0.026,0.339,0.044,0.513,0.049c0.168-0.002,0.34-0.016,0.508-0.04l4.061,35.698H26.205z M30.767,3.591
	c3.815,8.989,1.945,20.901,1.179,24.669c-0.777-0.236-1.608-0.236-2.389,0c-0.724-3.768-2.586-15.671,1.218-24.705L30.767,3.591z
	 M26.587,32.639c0.067,0.812,0.368,1.582,0.868,2.226c-3.165,2.01-13.185,7.865-22.793,7.865H4
	C11.021,35.894,22.806,33.313,26.587,32.639"/>
<rect x="-21.68" y="-29" fill="none" width="104.36" height="137"/>
</svg>
