<?xml version="1.0" encoding="utf-8"?>
<!-- Generator: Adobe Illustrator 16.0.0, SVG Export Plug-In . SVG Version: 6.00 Build 0)  -->
<!DOCTYPE svg PUBLIC "-//W3C//DTD SVG 1.1//EN" "http://www.w3.org/Graphics/SVG/1.1/DTD/svg11.dtd">
<svg version="1.1" id="Layer_1" xmlns="http://www.w3.org/2000/svg" xmlns:xlink="http://www.w3.org/1999/xlink" x="0px" y="0px"
	 width="81px" height="81px" viewBox="0 0 81 81" enable-background="new 0 0 81 81" xml:space="preserve">
<g>
	<path fill="#D4D4D4" d="M75.841,27.351c2.574-0.027,4.683-2.048,4.818-4.618c0.07-1.203-0.375-2.379-1.224-3.233
		c-0.586-0.573-1.326-0.958-2.13-1.108c-0.149-0.803-0.535-1.545-1.107-2.13c-0.854-0.849-2.03-1.293-3.233-1.223
		c-1.203,0.058-2.34,0.565-3.187,1.422c-1.305,1.28-1.749,3.199-1.142,4.923l-1.729,1.729c-1.364,0.126-2.684,0.561-3.857,1.269
		c-0.518,0.284-1.023,0.59-1.529,0.896c-0.654,0.401-1.292,0.778-1.938,1.102c0.236-0.698,0.457-1.385,0.632-2.034
		c0.709-2.25,0.857-4.639,0.434-6.959c-0.245-1.191-0.65-2.342-1.203-3.426l1.144-2.369c0.028,0,0.057,0.007,0.084,0.007
		c1.802-0.033,3.428-1.087,4.194-2.718c1.156-2.227,0.293-4.971-1.933-6.132c-0.742-0.346-1.57-0.464-2.38-0.341
		c-0.404-0.708-1.01-1.28-1.739-1.645c-2.293-1.018-4.979,0.014-6.001,2.306c-0.809,1.638-0.596,3.596,0.547,5.021l-1.057,2.193
		c-1.253,0.568-2.36,1.414-3.235,2.476c-0.401,0.442-0.771,0.898-1.146,1.354c-0.826,1.122-1.819,2.11-2.944,2.932
		c-1.666,0.974-3.46,1.709-5.33,2.183l-0.427,0.135c-8.661,2.655-10.007,6.999-9.357,10.505c-1.558,0.991-2.992,2.166-4.269,3.5
		c-4.158,4.352-6.379,10.656-6.379,17.839h-0.149c-0.063,0-0.125,0.008-0.188,0.01c-0.552-2.178-2.407-3.776-4.641-4
		c-2.234-0.225-4.37,0.975-5.343,2.998c-0.599-0.229-1.233-0.346-1.874-0.348c-1.888-0.017-3.643,0.971-4.607,2.594
		c-0.965,1.622-0.995,3.636-0.077,5.285c-1.164,0.925-1.886,2.295-1.992,3.776c-0.107,1.481,0.413,2.94,1.431,4.022
		c-1.299,1.078-1.781,2.854-1.206,4.44s2.086,2.641,3.774,2.635h0.107c0.664,4.604,4.608,8.023,9.26,8.028h53.533
		c4.653-0.005,8.596-3.425,9.261-8.028h0.107c1.681,0.006,3.187-1.04,3.768-2.616c0.581-1.577,0.113-3.35-1.17-4.434
		c1.353-1.847,1.765-4.218,1.117-6.412c-0.648-2.192-2.284-3.959-4.423-4.773c-0.047-1.334-0.204-2.663-0.471-3.971
		c-0.929-4.234-2.854-8.186-5.621-11.523c2.162-2.845,3.115-6.429,2.649-9.973l1.848-1.846
		C74.802,27.252,75.319,27.348,75.841,27.351 M71.665,18.353c0.374-0.383,0.881-0.612,1.417-0.641
		c0.451-0.029,0.895,0.131,1.222,0.444c0.337,0.352,0.493,0.842,0.422,1.325c0,0.053,0.004,0.107,0.011,0.16
		c-0.007,0.051-0.011,0.103-0.011,0.156c0,0.037,0.025,0.068,0.032,0.104c0.02,0.086,0.047,0.17,0.083,0.251
		c0.055,0.155,0.146,0.296,0.268,0.409c0.062,0.067,0.13,0.126,0.206,0.179c0.065,0.042,0.136,0.079,0.21,0.108
		c0.086,0.038,0.175,0.067,0.269,0.086c0.036,0.007,0.065,0.03,0.104,0.035c0.051-0.001,0.102-0.006,0.152-0.014
		c0.054,0.008,0.107,0.013,0.162,0.014c0.467-0.08,0.944,0.063,1.291,0.384c0.347,0.322,0.524,0.787,0.481,1.258
		c-0.028,0.538-0.258,1.044-0.642,1.419c-0.635,0.708-1.689,0.848-2.488,0.331c-0.035-0.027-0.077-0.032-0.115-0.055
		c-0.094-0.061-0.195-0.108-0.301-0.144c-0.063-0.018-0.127-0.03-0.191-0.037c-0.101-0.017-0.201-0.022-0.303-0.016
		c-0.073,0.008-0.146,0.023-0.218,0.042c-0.089,0.021-0.175,0.051-0.258,0.09c-0.12,0.079-0.24,0.159-0.359,0.238l-1.539,1.543
		c-0.253-0.508-0.576-0.979-0.959-1.398c-0.235-0.244-0.494-0.466-0.771-0.66l1.379-1.38c0.033-0.042,0.063-0.086,0.092-0.133
		c0.057-0.068,0.105-0.142,0.146-0.221c0.039-0.083,0.069-0.17,0.09-0.259c0.02-0.071,0.033-0.144,0.042-0.217
		c0.006-0.101,0-0.202-0.017-0.302c-0.006-0.065-0.019-0.13-0.036-0.193c-0.034-0.107-0.081-0.208-0.139-0.302
		c-0.023-0.038-0.028-0.079-0.056-0.115C70.823,20.046,70.96,18.991,71.665,18.353 M55.224,4.229
		c0.393-0.947,1.465-1.415,2.428-1.058c0.435,0.224,0.743,0.635,0.835,1.115c0.019,0.049,0.04,0.097,0.064,0.143
		c0.009,0.052,0.021,0.104,0.038,0.154c0.018,0.035,0.049,0.055,0.067,0.088c0.048,0.077,0.103,0.148,0.164,0.212
		c0.056,0.064,0.116,0.122,0.182,0.173c0.068,0.049,0.141,0.091,0.217,0.126c0.076,0.04,0.155,0.07,0.239,0.093
		c0.078,0.019,0.158,0.03,0.24,0.034c0.092,0.008,0.185,0.005,0.276-0.007c0.035,0.002,0.071,0.002,0.106,0
		c0.05-0.018,0.097-0.039,0.143-0.063c0.053-0.01,0.104-0.022,0.153-0.039c0.435-0.228,0.949-0.242,1.395-0.04
		c0.878,0.529,1.18,1.659,0.685,2.557c-0.368,0.877-1.317,1.358-2.242,1.134c-0.04-0.014-0.079,0-0.12-0.014
		c-0.108-0.026-0.222-0.04-0.335-0.037c-0.066,0.004-0.133,0.014-0.197,0.027c-0.099,0.017-0.195,0.046-0.287,0.085
		c-0.067,0.032-0.133,0.07-0.194,0.112c-0.076,0.048-0.147,0.105-0.211,0.169c-0.063,0.066-0.118,0.138-0.165,0.216
		c-0.035,0.041-0.067,0.083-0.097,0.127l-0.948,1.965c-0.41-0.396-0.87-0.736-1.369-1.011c-0.301-0.152-0.613-0.275-0.937-0.369
		l0.84-1.746c0.016-0.05,0.029-0.1,0.039-0.151c0.067-0.169,0.092-0.353,0.069-0.535c-0.005-0.078-0.015-0.155-0.033-0.23
		c-0.027-0.094-0.065-0.184-0.112-0.269c-0.029-0.061-0.063-0.119-0.1-0.174c-0.07-0.089-0.15-0.17-0.239-0.24
		c-0.032-0.025-0.05-0.062-0.085-0.085C54.979,6.111,54.762,5.063,55.224,4.229 M40.005,21.916l0.426-0.133
		c2.115-0.542,4.14-1.384,6.013-2.503c1.354-0.964,2.549-2.134,3.54-3.468c0.35-0.428,0.701-0.855,1.071-1.27
		c0.647-0.858,1.531-1.509,2.542-1.874c0.493-0.125,1.015-0.053,1.455,0.2c0.403,0.222,0.765,0.51,1.071,0.853
		c0.224,0.247,0.423,0.516,0.594,0.803c0.023,0.052,0.049,0.104,0.079,0.153c0.587,1.003,1.002,2.098,1.225,3.239
		c0.342,1.913,0.206,3.88-0.394,5.729c-0.352,1.25-0.771,2.479-1.259,3.682c-1.313,0.124-2.633,0.146-3.948,0.067
		c-6.583-2.135-13.725-1.754-20.044,1.071C32.36,26.622,33.483,23.916,40.005,21.916 M13.715,49.864
		c1.097,0.002,2.08,0.679,2.475,1.702c-1.488,0.367-2.891,1.016-4.134,1.912c-0.204-0.601-0.517-1.158-0.922-1.646
		C11.444,50.663,12.507,49.853,13.715,49.864 M7.024,52.542c0.669,0.002,1.311,0.255,1.802,0.708
		c0.561,0.501,0.878,1.217,0.874,1.969l-0.012,0.235c-0.013,0.119-0.037,0.236-0.071,0.351c-0.474,0.601-0.89,1.242-1.242,1.922
		c-0.019,0.034-0.035,0.069-0.05,0.104c-0.854,1.679-1.301,3.534-1.302,5.417v1.339H5.686c-1.291-0.005-2.395-0.93-2.625-2.2
		c-0.23-1.271,0.48-2.524,1.688-2.98c0.012,0,0.02-0.016,0.033-0.021c0.068-0.033,0.132-0.072,0.193-0.118
		c0.094-0.051,0.182-0.114,0.261-0.186c0.012-0.012,0.028-0.016,0.041-0.029c0.037-0.051,0.068-0.104,0.095-0.159
		c0.058-0.075,0.106-0.156,0.146-0.243c0.028-0.079,0.049-0.161,0.062-0.243c0.02-0.084,0.033-0.168,0.037-0.253
		c-0.005-0.095-0.019-0.188-0.041-0.278c-0.005-0.063-0.015-0.124-0.03-0.186c0-0.018-0.02-0.028-0.027-0.044
		c-0.037-0.081-0.082-0.158-0.134-0.229c-0.043-0.075-0.095-0.147-0.154-0.213c-0.014-0.013-0.018-0.03-0.031-0.043
		c-0.548-0.497-0.857-1.204-0.853-1.942C4.348,53.74,5.545,52.542,7.024,52.542 M67.248,77.97H13.715
		c-0.427-0.004-0.853-0.049-1.271-0.134c-0.134-0.027-0.268-0.072-0.395-0.107c-0.273-0.065-0.541-0.148-0.804-0.247
		c-0.146-0.059-0.286-0.135-0.428-0.201c-0.227-0.107-0.448-0.226-0.661-0.358c-0.134-0.088-0.268-0.183-0.402-0.28
		c-0.196-0.144-0.385-0.3-0.564-0.466c-0.121-0.109-0.239-0.222-0.35-0.341c-0.168-0.182-0.326-0.374-0.474-0.572
		c-0.094-0.128-0.192-0.251-0.277-0.384c-0.143-0.229-0.272-0.466-0.387-0.709c-0.061-0.124-0.134-0.242-0.183-0.371
		c-0.148-0.359-0.265-0.733-0.347-1.114c0-0.024-0.016-0.046-0.021-0.068h66.653C73.167,75.729,70.427,77.966,67.248,77.97
		 M76.616,69.939H4.348c-0.739,0-1.339-0.599-1.339-1.338s0.6-1.339,1.339-1.339h72.269c0.738,0,1.338,0.6,1.338,1.339
		S77.354,69.939,76.616,69.939 M77.954,61.24c-0.001,1.271-0.529,2.48-1.458,3.347h-2.531c1.001-2.312,1.63-4.767,1.862-7.274
		C77.16,58.175,77.961,59.654,77.954,61.24 M73.243,54.589c0.09,3.466-0.673,6.898-2.224,9.998H9.7v-1.339
		c0.006-5.171,4.197-9.362,9.369-9.368h0.25c0.102,1.438,0.291,2.868,0.564,4.283c0.127,0.622,0.676,1.07,1.312,1.07
		c0.09,0,0.18-0.008,0.268-0.026c0.348-0.071,0.654-0.277,0.851-0.573c0.195-0.296,0.266-0.658,0.195-1.007
		c-0.342-1.695-0.548-3.416-0.617-5.144c-0.28-7.034,1.728-13.167,5.639-17.272c4.129-4.277,9.855-6.639,15.799-6.514
		c-0.728,0.35-1.396,0.809-1.985,1.361c-1.495,1.487-2.294,3.536-2.201,5.643c-0.118,4.347,1.144,8.619,3.603,12.206
		c1.792,2.709,4.814,4.348,8.063,4.368h0.197c6.651-0.124,13.423-6.505,17.164-11.171c2.273,2.888,3.862,6.255,4.646,9.846
		C73.061,52.148,73.204,53.365,73.243,54.589 M69.791,32.2c-0.304,1.918-1.079,3.732-2.257,5.277
		c-3.159,4.626-10.457,12.007-16.579,12.122h-0.143c-2.398-0.029-4.622-1.264-5.914-3.286c-2.118-3.124-3.195-6.839-3.078-10.612
		c-0.088-1.377,0.413-2.727,1.378-3.712c1.362-1.31,3.77-1.972,7.161-1.972c0.359,0,0.731,0.008,1.111,0.022l0.372,0.015
		c0.121,0,0.244,0.007,0.365,0.013h0.067c2.056,0.163,4.125,0.03,6.144-0.393c1.595-0.47,3.108-1.181,4.487-2.11
		c0.473-0.286,0.948-0.573,1.434-0.84c2.643-1.452,3.644-0.981,4.33-0.256c0.309,0.333,0.552,0.721,0.721,1.143
		C69.905,29.082,70.043,30.661,69.791,32.2"/>
	<rect x="0.333" y="0.333" fill="none" width="80.333" height="80.333"/>
	<path fill="#D4D4D4" d="M30.167,35.536c-0.181,0.179-4.407,4.52-4.407,14.329c0,0.74,0.599,1.34,1.338,1.34s1.337-0.6,1.337-1.34
		c0-8.556,3.546-12.354,3.629-12.445c0.506-0.527,0.496-1.361-0.021-1.877c-0.518-0.514-1.353-0.519-1.876-0.01V35.536z"/>
	<path fill="#D4D4D4" d="M27.099,53.88c-0.739,0-1.338,0.599-1.338,1.339v1.338c0,0.739,0.599,1.339,1.338,1.339
		s1.337-0.6,1.337-1.339v-1.338C28.436,54.479,27.838,53.88,27.099,53.88"/>
	<rect x="0.333" y="0.333" fill="none" width="80.333" height="80.333"/>
</g>
</svg>
