<?xml version="1.0" encoding="utf-8"?>
<!-- Generator: Adobe Illustrator 16.0.0, SVG Export Plug-In . SVG Version: 6.00 Build 0)  -->
<!DOCTYPE svg PUBLIC "-//W3C//DTD SVG 1.1//EN" "http://www.w3.org/Graphics/SVG/1.1/DTD/svg11.dtd">
<svg version="1.1" id="Layer_1" xmlns="http://www.w3.org/2000/svg" xmlns:xlink="http://www.w3.org/1999/xlink" x="0px" y="0px"
	 width="94px" height="70px" viewBox="0 0 94 70" enable-background="new 0 0 94 70" xml:space="preserve">
<g>
	<path fill-rule="evenodd" clip-rule="evenodd" fill="#D4D4D4" d="M93.621,32.721c0,0.182,0,0.364,0,0.546
		c-0.518,0.849-0.92,1.809-1.585,2.521c-0.823,0.881-1.988,1.166-3.218,1.126c-0.998-0.033-2-0.007-2.998-0.007
		c1.47,1.438,2.707,2.892,3.244,4.757c1.156,4.003,0.647,8.129,0.408,12.161c-0.188,3.177-2.332,5.51-5.109,7.137
		c-0.281,0.164-0.534,0.624-0.551,0.958c-0.059,1.393-0.021,2.79-0.023,4.185c-0.006,1.867-1.807,3.73-3.693,3.751
		c-2.641,0.03-5.281,0.034-7.92,0c-1.883-0.022-3.678-1.891-3.682-3.76c-0.002-1.324,0-2.649,0-3.983c-14.385,0-28.651,0-42.97,0
		c0,1.379,0.002,2.683-0.001,3.984c-0.005,1.869-1.8,3.736-3.684,3.759c-2.64,0.033-5.28,0.033-7.92,0
		c-1.886-0.021-3.685-1.885-3.689-3.751c-0.003-1.335-0.03-2.672,0.012-4.005c0.019-0.612-0.177-0.931-0.722-1.266
		c-3.31-2.031-5.219-4.888-5.127-8.911c0.056-2.396,0.04-4.795,0.002-7.19c-0.036-2.208,0.721-4.11,2.079-5.797
		c0.535-0.664,1.14-1.272,1.878-2.088c-3.407,0.212-6.72,0.471-7.955-3.58c0-0.182,0-0.364,0-0.546
		c0.056-0.063,0.154-0.122,0.161-0.189c0.165-1.737,2.362-3.486,4.051-3.293c1.139,0.128,2.303,0.017,3.456,0.027
		c0.405,0.003,0.669-0.04,0.719-0.563c0.338-3.582,1.091-7.086,2.186-10.508c1.797-5.616,4.203-10.897,8.754-14.894
		c2.253-1.979,4.82-3.188,7.91-3.182c13.775,0.023,27.551,0.01,41.327,0.012c0.303,0,0.611-0.019,0.906,0.033
		c3.289,0.577,5.766,2.437,7.802,4.983c2.776,3.468,4.478,7.476,5.536,11.722c1.005,4.048,1.688,8.177,2.538,12.393
		c0.616,0,1.459-0.015,2.302,0.004c0.842,0.019,1.715-0.061,2.515,0.136C92.264,29.822,93.114,31.139,93.621,32.721z M60.797,24.513
		c-3.152-3.686-2.371-7.722,0.281-10.371c2.762-2.76,6.619-3.183,9.588-1.001c1.818,1.338,3.01,3.099,3.389,5.347
		c0.406,2.403-0.664,4.348-2.104,6.168c3.781,1.969,6.338,4.853,7.512,8.898c0.465,1.596,0.48,1.592,2.186,1.524
		c0.084-0.004,0.164-0.054,0.432-0.146c-0.156-2.156-0.222-4.355-0.496-6.527c-0.4-3.173-0.814-6.355-1.473-9.48
		c-0.785-3.731-2.045-7.32-4.254-10.5c-2.133-3.077-4.9-4.725-8.811-4.694C53.969,3.834,40.891,3.767,27.813,3.775
		c-1.59,0.001-3.081,0.427-4.461,1.228c-2.622,1.521-4.415,3.821-5.823,6.42c-3.925,7.239-5.27,15.102-5.471,23.226
		c-0.004,0.138,0.063,0.278,0.099,0.43c0.405,0,0.772-0.036,1.131,0.008c0.725,0.087,1-0.272,1.133-0.933
		c0.512-2.546,1.755-4.737,3.591-6.526c1.19-1.16,2.604-2.091,3.917-3.125c-3.564-4.301-1.998-8.243,0.535-10.609
		c3.181-2.971,6.997-2.701,9.816-0.358c3.241,2.693,4.305,7.022,0.948,10.984c1.515,1.154,3.03,2.311,4.566,3.48
		c1.072-0.567,2.222-1.175,3.377-1.787c-2.913-3.68-2.063-7.616,0.552-10.2c2.771-2.74,6.542-3.122,9.625-0.825
		c1.638,1.22,2.822,2.817,3.211,4.878c0.437,2.326-0.271,4.366-1.736,6.145c1.237,0.648,2.398,1.256,3.408,1.785
		C57.791,26.805,59.27,25.677,60.797,24.513z M31.489,58.394c0.228-4.379,4.068-7.967,8.315-7.858
		c4.942,0.126,9.891,0.019,14.835,0.042c0.651,0.003,1.329,0.089,1.944,0.291c3.59,1.183,5.538,3.715,5.986,7.477
		c0.111,0.016,0.229,0.046,0.344,0.046c5.734-0.008,11.467,0.056,17.201-0.052c3.852-0.074,5.693-2.466,5.836-5.781
		c0.112-2.665,0.104-5.343,0-8.008c-0.106-2.654-1.288-4.847-4.165-5.51c-1.353-0.312-2.815-0.176-4.229-0.177
		c-14.139-0.011-28.273,0.004-42.41-0.011c-6.976-0.008-13.951-0.083-20.927-0.086c-3.867-0.003-6.176,2.36-6.176,6.21
		c0,2.487-0.088,4.979,0.04,7.461c0.057,1.102,0.368,2.275,0.883,3.248c1.07,2.021,3.023,2.648,5.183,2.672
		c3.609,0.037,7.22,0.029,10.83,0.035C27.128,58.396,29.277,58.394,31.489,58.394z M18.1,34.885c6.391,0,12.703,0,19.032,0
		c-1.319-5.566-5.541-8.466-11.424-7.603C21.371,27.919,18.385,31.533,18.1,34.885z M75.93,34.92
		c-0.391-3.739-3.756-7.648-9.061-7.792c-5.621-0.153-9.002,3.088-9.918,7.792C63.254,34.92,69.551,34.92,75.93,34.92z
		 M35.421,58.302c7.77,0,15.481,0,23.177,0c0.436-1.965-1.314-3.957-3.453-3.934c-5.425,0.06-10.852,0.059-16.276-0.002
		C36.692,54.344,34.979,56.393,35.421,58.302z M47.002,34.96c1.728,0,3.455-0.023,5.182,0.012c0.621,0.013,0.919-0.165,1.034-0.813
		c0.13-0.729,0.315-1.478,0.647-2.131c0.37-0.728,0.172-1.111-0.474-1.434c-0.242-0.12-0.459-0.289-0.699-0.409
		c-2.379-1.173-4.938-1.262-7.492-1.055c-1.63,0.132-3.228,0.561-4.646,1.496c-0.54,0.357-0.747,0.649-0.452,1.308
		c0.325,0.729,0.521,1.521,0.707,2.301c0.126,0.526,0.353,0.748,0.92,0.737C43.487,34.939,45.244,34.96,47.002,34.96z
		 M46.962,25.255c2.747,0.182,4.035-1.688,4.028-3.865c-0.007-2.246-1.208-4.008-4.07-3.967c-2.679,0.039-3.877,1.689-3.892,3.962
		C43.015,23.625,44.385,25.414,46.962,25.255z M23.703,19.395c-0.179,2.629,1.58,3.991,3.909,4.003
		c2.446,0.014,3.912-1.501,3.922-3.948c0.013-2.789-1.704-3.988-3.958-4.002C25.329,15.435,23.537,16.817,23.703,19.395z
		 M70.316,19.504c0.188-2.806-1.721-4.063-3.855-4.055c-2.291,0.009-3.941,1.217-3.979,3.892c-0.035,2.825,1.662,4.053,3.996,4.048
		C68.92,23.383,70.463,21.841,70.316,19.504z M21.883,66.002c0-1.159,0.036-2.219-0.029-3.272c-0.014-0.232-0.384-0.631-0.597-0.635
		c-2.268-0.047-4.538-0.04-6.807-0.01c-0.192,0.002-0.541,0.265-0.547,0.419c-0.046,1.164-0.025,2.33-0.025,3.498
		C16.598,66.002,19.189,66.002,21.883,66.002z M80.145,66.027c0-1.188,0.031-2.303-0.027-3.41c-0.012-0.195-0.398-0.523-0.617-0.529
		c-2.239-0.038-4.479-0.035-6.717-0.003c-0.217,0.003-0.607,0.278-0.613,0.44c-0.055,1.163-0.029,2.329-0.029,3.502
		C74.857,66.027,77.428,66.027,80.145,66.027z"/>
	<path fill-rule="evenodd" clip-rule="evenodd" fill="#D4D4D4" d="M19.818,42.651c1.598,0.089,3.203,0.105,4.791,0.284
		c2.398,0.269,5.046,3.263,4.882,5.639c-0.192,2.801-2.212,5.348-5.005,5.572c-3.147,0.256-6.355,0.301-9.491-0.019
		c-2.448-0.249-4.036-2.071-4.649-4.469c-0.546-2.137,0.358-3.884,1.915-5.319c1.254-1.155,2.775-1.613,4.458-1.604
		c1.032,0.005,2.063,0.002,3.095,0.002C19.815,42.708,19.816,42.68,19.818,42.651z M19.835,50.565c1.363,0,2.729,0.012,4.092-0.003
		c1.184-0.014,1.78-0.699,1.78-2c0.001-1.303-0.597-1.995-1.778-2c-2.729-0.013-5.457-0.012-8.185,0.001
		c-1.203,0.004-1.845,0.694-1.872,1.952c-0.028,1.285,0.641,2.032,1.87,2.046C17.106,50.577,18.471,50.564,19.835,50.565z"/>
	<path fill-rule="evenodd" clip-rule="evenodd" fill="#D4D4D4" d="M74.156,54.471c-1.535-0.088-3.08-0.114-4.609-0.277
		c-2.332-0.247-4.512-2.549-4.891-4.896c-0.516-3.211,2.438-6.243,4.918-6.35c3.162-0.134,6.359-0.279,9.492,0.053
		c2.442,0.259,4.031,2.112,4.625,4.501c0.519,2.084-0.363,3.835-1.896,5.253c-1.273,1.181-2.824,1.646-4.539,1.636
		c-1.032-0.007-2.063-0.001-3.096-0.001C74.16,54.416,74.158,54.444,74.156,54.471z M74.224,50.565c1.335,0,2.669,0.008,4.003-0.002
		c1.258-0.011,1.918-0.706,1.92-1.999c0.002-1.281-0.667-1.998-1.912-2.002c-2.699-0.011-5.398-0.011-8.094,0
		c-1.215,0.004-1.822,0.669-1.83,1.95c-0.004,1.369,0.578,2.037,1.822,2.05C71.496,50.574,72.861,50.564,74.224,50.565z"/>
</g>
</svg>
