<?xml version="1.0" encoding="utf-8"?>
<!-- Generator: Adobe Illustrator 16.0.0, SVG Export Plug-In . SVG Version: 6.00 Build 0)  -->
<!DOCTYPE svg PUBLIC "-//W3C//DTD SVG 1.1//EN" "http://www.w3.org/Graphics/SVG/1.1/DTD/svg11.dtd">
<svg version="1.1" id="Layer_1" xmlns="http://www.w3.org/2000/svg" xmlns:xlink="http://www.w3.org/1999/xlink" x="0px" y="0px"
	 width="89px" height="62px" viewBox="0 0 89 62" enable-background="new 0 0 89 62" xml:space="preserve">
<g>
	<path fill="#D4D4D4" d="M84.174,38.348H4.824c-2.498,0-4.408-1.91-4.408-4.408V4.55c0-2.498,1.91-4.408,4.408-4.408h79.35
		c2.5,0,4.409,1.91,4.409,4.408v29.39C88.583,36.438,86.674,38.348,84.174,38.348 M4.824,3.081c-0.735,0-1.47,0.587-1.47,1.469
		v29.39c0,0.881,0.588,1.47,1.47,1.47h79.35c0.883,0,1.47-0.589,1.47-1.47V4.55c0-0.881-0.587-1.469-1.47-1.469H4.824z"/>
	<path fill="#D4D4D4" d="M50.378,13.367H38.622c-0.882,0-1.47-0.588-1.47-1.47c0-0.881,0.588-1.469,1.47-1.469h11.756
		c0.881,0,1.469,0.587,1.469,1.469C51.847,12.779,51.259,13.367,50.378,13.367"/>
	<path fill="#D4D4D4" d="M81.236,32.47H7.763c-0.882,0-1.469-0.588-1.469-1.47s0.587-1.469,1.469-1.469h73.473
		c0.881,0,1.47,0.587,1.47,1.469S82.117,32.47,81.236,32.47"/>
	<path fill="#D4D4D4" d="M81.236,26.592H7.763c-0.882,0-1.469-0.588-1.469-1.47c0-0.882,0.587-1.469,1.469-1.469h73.473
		c0.881,0,1.47,0.587,1.47,1.469C82.706,26.004,82.117,26.592,81.236,26.592"/>
	<path fill="#D4D4D4" d="M44.499,58.92c-0.588,0-1.028-0.294-1.322-0.734c-0.44-0.735-0.147-1.616,0.589-1.911
		c1.322-0.733,2.203-1.616,2.203-2.351c0-0.735-0.735-1.617-2.203-2.351c-2.352-1.47-3.674-3.233-3.674-5.145
		c0-1.91,1.323-3.673,3.674-4.995c0.733-0.44,1.615-0.147,1.909,0.588c0.294,0.734,0.146,1.616-0.587,1.909
		c-1.177,0.883-2.058,1.764-2.058,2.498c0,0.735,0.736,1.617,2.204,2.353c2.353,1.175,3.675,3.084,3.675,4.995
		s-1.322,3.674-3.675,4.996C44.94,58.92,44.793,58.92,44.499,58.92"/>
	<path fill="#D4D4D4" d="M28.335,61.858c-0.588,0-1.028-0.294-1.323-0.734c-0.44-0.734-0.147-1.616,0.588-1.91
		c1.323-0.734,2.205-1.616,2.205-2.352c0-0.734-0.735-1.616-2.205-2.352c-2.351-1.468-3.673-3.231-3.673-5.143
		c0-1.91,1.323-3.673,3.673-4.996c0.735-0.441,1.617-0.146,1.91,0.588c0.441,0.735,0.147,1.616-0.587,1.91
		c-1.176,0.883-2.058,1.764-2.058,2.498c0,0.735,0.735,1.616,2.205,2.353c2.351,1.175,3.674,3.084,3.674,4.995
		c0,1.91-1.323,3.674-3.674,4.995C28.776,61.858,28.63,61.858,28.335,61.858"/>
	<path fill="#D4D4D4" d="M60.663,61.858c-0.588,0-1.028-0.294-1.321-0.734c-0.441-0.734-0.147-1.616,0.587-1.91
		c1.322-0.734,2.204-1.616,2.204-2.352c0-0.734-0.735-1.616-2.204-2.352c-2.352-1.468-3.674-3.231-3.674-5.143
		c0-1.91,1.322-3.673,3.674-4.996c0.734-0.441,1.616-0.146,1.91,0.588c0.294,0.735,0.147,1.616-0.588,1.91
		c-1.176,0.883-2.057,1.764-2.057,2.498c0,0.735,0.734,1.616,2.203,2.353c2.353,1.175,3.675,3.084,3.675,4.995
		c0,1.91-1.322,3.674-3.675,4.995C61.104,61.858,60.957,61.858,60.663,61.858"/>
</g>
<rect x="-207.304" y="-145.262" fill="none" width="503.607" height="352.525"/>
</svg>
