<?xml version="1.0" encoding="utf-8"?>
<!-- Generator: Adobe Illustrator 16.0.0, SVG Export Plug-In . SVG Version: 6.00 Build 0)  -->
<!DOCTYPE svg PUBLIC "-//W3C//DTD SVG 1.1//EN" "http://www.w3.org/Graphics/SVG/1.1/DTD/svg11.dtd">
<svg version="1.1" id="Capa_1" xmlns="http://www.w3.org/2000/svg" xmlns:xlink="http://www.w3.org/1999/xlink" x="0px" y="0px"
	 width="60px" height="60px" viewBox="0 0 60 60" enable-background="new 0 0 60 60" xml:space="preserve">
<g>
	<g>
		<path fill="#31A577" d="M51.029,18.865c0.463-1.135,0.695-2.335,0.695-3.581c0-0.252-0.012-0.507-0.029-0.757
			c-0.037-0.466-0.444-0.813-0.911-0.777c-0.466,0.037-0.813,0.444-0.775,0.91c0.016,0.206,0.023,0.416,0.023,0.624
			c0,1.267-0.294,2.477-0.875,3.599c-0.108,0.209-0.124,0.455-0.044,0.677c0.081,0.221,0.249,0.399,0.466,0.491
			c3.305,1.396,5.44,4.617,5.44,8.203c0,4.769-3.731,8.671-8.496,8.887c-0.366,0.017-0.68,0.267-0.775,0.62
			c-0.631,2.284-3.165,3.94-6.023,3.94c-1.363,0-2.663-0.361-3.733-1.03l2.795-4.412c0.196-0.309,0.298-0.651,0.308-0.994
			c0.019-0.568-0.217-1.134-0.677-1.534c-0.778-0.676-1.954-0.632-2.681,0.103l-2.097,2.123l0.684-5.066
			c0.071-0.536-0.083-1.083-0.424-1.501c-0.299-0.366-0.724-0.612-1.186-0.692c-0.067-0.011-0.135-0.02-0.201-0.024l-0.755-0.051
			c-0.377-0.025-0.735,0.057-1.048,0.221c-0.52,0.273-0.906,0.777-1.015,1.396l-0.662,3.76l-0.662,3.759l-4.085-5.023
			c-0.135-0.168-0.296-0.308-0.471-0.417c-0.001-0.002-0.002-0.003-0.003-0.004c-0.019-0.011-0.039-0.021-0.058-0.033
			c-0.252-0.146-0.532-0.235-0.821-0.261c-0.009-0.001-0.018-0.001-0.027-0.003c-0.042-0.002-0.085-0.005-0.127-0.005
			c-0.261-0.002-0.524,0.047-0.772,0.15l-0.79,0.332c-0.525,0.222-0.926,0.657-1.104,1.197c-0.177,0.541-0.111,1.13,0.182,1.618
			l3.344,5.573c-0.998,0.534-2.165,0.82-3.362,0.82c-2.86,0-5.393-1.656-6.023-3.939c-0.098-0.354-0.412-0.604-0.777-0.621
			c-4.763-0.216-8.494-4.118-8.494-8.886c0-3.587,2.135-6.807,5.439-8.203c0.216-0.092,0.386-0.27,0.465-0.492
			c0.081-0.222,0.065-0.468-0.043-0.676c-0.581-1.122-0.875-2.333-0.875-3.6c0-4.327,3.521-7.847,7.848-7.847
			c1.206,0,2.363,0.267,3.441,0.794c0.226,0.11,0.489,0.115,0.718,0.012c0.229-0.103,0.401-0.303,0.468-0.544
			C23.387,4.324,26.495,1.966,30,1.966c3.506,0,6.615,2.357,7.557,5.732c0.067,0.242,0.239,0.442,0.468,0.544
			c0.229,0.104,0.492,0.098,0.719-0.012c1.077-0.527,2.235-0.794,3.441-0.794c2.892,0,5.541,1.583,6.915,4.133
			c0.222,0.412,0.734,0.566,1.146,0.344c0.409-0.221,0.564-0.735,0.342-1.146c-1.668-3.099-4.888-5.023-8.403-5.023
			c-1.143,0-2.25,0.197-3.303,0.587C37.465,2.722,33.939,0.274,30,0.274c-3.94,0-7.465,2.448-8.881,6.059
			c-1.053-0.391-2.161-0.588-3.303-0.588c-5.26,0-9.54,4.28-9.54,9.54c0,1.245,0.233,2.445,0.697,3.581
			c-3.48,1.818-5.684,5.415-5.684,9.39c0,5.479,4.138,9.997,9.524,10.535c1.059,2.74,4.035,4.604,7.464,4.604
			c1.502,0,2.975-0.372,4.233-1.062l0.419,0.699c0.571,0.954,0.809,2.083,0.667,3.181c-0.124,0.949-0.275,2.066-0.467,3.16
			c-0.082,0.46,0.226,0.898,0.687,0.979c0.461,0.08,0.899-0.228,0.98-0.688c0.197-1.126,0.353-2.267,0.478-3.234
			c0.191-1.475-0.126-2.99-0.894-4.27l-4.633-7.724c-0.055-0.091-0.039-0.177-0.025-0.221c0.014-0.043,0.053-0.122,0.15-0.164
			l0.79-0.331c0.109-0.045,0.238-0.013,0.312,0.078l4.51,5.546c0.012,0.015,0.024,0.028,0.037,0.043
			c0.168,0.189,0.376,0.326,0.605,0.402c0.243,0.078,0.509,0.09,0.771,0.023c0.003,0,0.006-0.001,0.009-0.003c0,0,0,0,0,0l0,0
			c0.256-0.064,0.479-0.199,0.651-0.377c0.007-0.008,0.014-0.014,0.021-0.021c0.006-0.007,0.012-0.014,0.018-0.021
			c0.166-0.188,0.281-0.421,0.327-0.681l1.439-8.181c0.024-0.135,0.147-0.229,0.282-0.221l0.755,0.051
			c0.101,0.007,0.162,0.064,0.189,0.098s0.071,0.106,0.058,0.205l-0.806,5.977c-0.011,0.075-0.015,0.147-0.014,0.221
			c0.014,0.51,0.307,0.979,0.775,1.209c0.033,0.016,0.067,0.03,0.102,0.044c0.17,0.067,0.351,0.1,0.529,0.098
			c0.354-0.005,0.703-0.147,0.966-0.412l2.742-2.777c0.049-0.048,0.11-0.074,0.172-0.078c0.003,0,0.006-0.001,0.008-0.001
			s0.004,0,0.005,0c0.049-0.001,0.097,0.011,0.141,0.036c0.014,0.008,0.028,0.019,0.041,0.029c0.101,0.087,0.121,0.233,0.05,0.346
			l-3.725,5.877c-0.78,1.234-1.144,2.72-1.017,4.181c0.354,4.092,0.969,8.707,3.638,12.621H23.742
			c0.955-1.416,1.697-3.027,2.251-4.881c0.134-0.447-0.121-0.92-0.567-1.053c-0.449-0.134-0.919,0.119-1.054,0.567
			c-0.676,2.263-1.65,4.114-2.979,5.661c-0.215,0.252-0.265,0.604-0.127,0.905c0.139,0.301,0.439,0.492,0.769,0.492h15.929
			c0.331,0,0.632-0.191,0.771-0.492c0.137-0.301,0.087-0.653-0.127-0.905c-3.258-3.797-3.933-8.732-4.306-13.063
			c-0.095-1.094,0.174-2.205,0.76-3.128l0.024-0.038c1.34,0.84,2.955,1.297,4.638,1.297c3.429,0,6.404-1.866,7.463-4.606
			c5.387-0.538,9.524-5.057,9.524-10.535C56.711,24.28,54.507,20.684,51.029,18.865z"/>
	</g>
</g>
</svg>
