<?xml version="1.0" encoding="utf-8"?>
<!-- Generator: Adobe Illustrator 16.0.0, SVG Export Plug-In . SVG Version: 6.00 Build 0)  -->
<!DOCTYPE svg PUBLIC "-//W3C//DTD SVG 1.1//EN" "http://www.w3.org/Graphics/SVG/1.1/DTD/svg11.dtd">
<svg version="1.1" id="Layer_1" xmlns="http://www.w3.org/2000/svg" xmlns:xlink="http://www.w3.org/1999/xlink" x="0px" y="0px"
	 width="19px" height="19px" viewBox="0 0 19 19" enable-background="new 0 0 19 19" xml:space="preserve">
<g>
	<path fill="#30A577" d="M16.112,12.101v4.323H2.885v-4.323H0.343v5.594c0,0.703,0.567,1.271,1.273,1.271h15.766
		c0.703,0,1.273-0.567,1.273-1.271v-5.594H16.112z"/>
	<path fill="#30A577" d="M9.268,11.673l-3.639-4.4c0,0-0.555-0.521,0.046-0.521h2.05V0.347c0,0-0.083-0.311,0.389-0.311H11
		c0.34,0,0.334,0.262,0.334,0.262v6.32h1.893c0.728,0,0.179,0.546,0.179,0.546s-3.096,4.113-3.53,4.545
		C9.564,12.02,9.268,11.673,9.268,11.673"/>
</g>
<rect x="-2.1" y="-2.49" fill="none" width="23.199" height="23.98"/>
</svg>
