<?xml version="1.0" encoding="utf-8"?>
<!-- Generator: Adobe Illustrator 16.0.0, SVG Export Plug-In . SVG Version: 6.00 Build 0)  -->
<!DOCTYPE svg PUBLIC "-//W3C//DTD SVG 1.1//EN" "http://www.w3.org/Graphics/SVG/1.1/DTD/svg11.dtd">
<svg version="1.1" id="Layer_1" xmlns="http://www.w3.org/2000/svg" xmlns:xlink="http://www.w3.org/1999/xlink" x="0px" y="0px"
	 width="71px" height="71px" viewBox="0 0 71 71" enable-background="new 0 0 71 71" xml:space="preserve">
<g>
	<path fill="#D4D4D4" d="M65.041,0.051H5.959C2.698,0.055,0.055,2.698,0.051,5.959v59.082c0.004,3.261,2.647,5.905,5.908,5.908
		h59.082c3.261-0.003,5.905-2.647,5.908-5.908V5.959C70.946,2.698,68.302,0.055,65.041,0.051 M68.586,5.959v10.635H30.773V2.414
		h34.268C66.999,2.414,68.586,4.001,68.586,5.959 M5.959,2.414h22.452v14.18H2.414V5.959C2.414,4.001,4.001,2.414,5.959,2.414
		 M65.041,68.586H5.959c-1.958,0-3.545-1.587-3.545-3.545V18.957h66.172v46.084C68.586,66.999,66.999,68.586,65.041,68.586"/>
	<path fill="#D4D4D4" d="M61.496,14.23c2.61,0,4.727-2.116,4.727-4.727c0-2.61-2.116-4.726-4.727-4.726S56.77,6.894,56.77,9.504
		C56.77,12.115,58.886,14.23,61.496,14.23 M61.496,7.14c1.306,0,2.363,1.058,2.363,2.364s-1.058,2.363-2.363,2.363
		c-1.305,0-2.363-1.058-2.363-2.363S60.191,7.14,61.496,7.14"/>
	<path fill="#D4D4D4" d="M49.68,14.23c2.61,0,4.727-2.116,4.727-4.727c0-2.61-2.116-4.726-4.727-4.726s-4.727,2.116-4.727,4.726
		C44.953,12.115,47.069,14.23,49.68,14.23 M49.68,7.14c1.306,0,2.363,1.058,2.363,2.364s-1.058,2.363-2.363,2.363
		c-1.305,0-2.363-1.058-2.363-2.363S48.375,7.14,49.68,7.14"/>
	<path fill="#D4D4D4" d="M9.504,14.23c2.611,0,4.727-2.116,4.727-4.727c0-2.61-2.116-4.726-4.727-4.726
		c-2.61,0-4.726,2.116-4.726,4.726C4.778,12.115,6.894,14.23,9.504,14.23 M9.504,7.14c1.306,0,2.363,1.058,2.363,2.364
		s-1.058,2.363-2.363,2.363S7.14,10.81,7.14,9.504S8.198,7.14,9.504,7.14"/>
	<path fill="#D4D4D4" d="M36.682,9.504c0,0.653-0.529,1.182-1.182,1.182c-0.653,0-1.181-0.529-1.181-1.182s0.528-1.182,1.181-1.182
		C36.152,8.322,36.682,8.851,36.682,9.504"/>
	<path fill="#D4D4D4" d="M41.408,9.504c0,0.653-0.529,1.182-1.182,1.182s-1.182-0.529-1.182-1.182s0.529-1.182,1.182-1.182
		S41.408,8.851,41.408,9.504"/>
	<path fill="#D4D4D4" d="M20.139,9.504c0,0.653-0.529,1.182-1.182,1.182c-0.652,0-1.181-0.529-1.181-1.182s0.529-1.182,1.181-1.182
		C19.609,8.322,20.139,8.851,20.139,9.504"/>
	<path fill="#D4D4D4" d="M24.865,9.504c0,0.653-0.529,1.182-1.181,1.182c-0.653,0-1.181-0.529-1.181-1.182s0.528-1.182,1.181-1.182
		C24.336,8.322,24.865,8.851,24.865,9.504"/>
	<path fill="#D4D4D4" d="M35.5,21.32c-12.399,0-22.452,10.052-22.452,22.451S23.101,66.223,35.5,66.223
		c12.399,0,22.451-10.052,22.451-22.451C57.938,31.377,47.894,21.333,35.5,21.32 M35.5,63.859c-11.095,0-20.088-8.994-20.088-20.088
		c0-11.094,8.993-20.088,20.088-20.088s20.088,8.994,20.088,20.088C55.575,54.86,46.59,63.847,35.5,63.859"/>
	<path fill="#D4D4D4" d="M35.5,26.047c-9.789,0-17.725,7.936-17.725,17.725c0,9.789,7.936,17.725,17.725,17.725
		s17.725-7.936,17.725-17.725C53.214,33.987,45.284,26.058,35.5,26.047 M35.5,59.133c-8.484,0-15.361-6.878-15.361-15.361
		S27.016,28.411,35.5,28.411c8.483,0,15.361,6.877,15.361,15.361C50.852,52.251,43.98,59.123,35.5,59.133"/>
	<path fill="#D4D4D4" d="M5.959,21.32c-0.653,0-1.181,0.529-1.181,1.182v2.362c0,0.653,0.528,1.182,1.181,1.182
		s1.181-0.529,1.181-1.182v-2.362C7.14,21.85,6.612,21.32,5.959,21.32"/>
	<path fill="#D4D4D4" d="M5.959,28.411c-0.653,0-1.181,0.528-1.181,1.181v24.814c0,0.652,0.528,1.182,1.181,1.182
		s1.181-0.529,1.181-1.182V29.592C7.14,28.939,6.612,28.411,5.959,28.411"/>
	<path fill="#D4D4D4" d="M36.044,42.722c-1.2-0.822-1.859-2.229-1.725-3.677c-0.13-1.439,0.522-2.839,1.709-3.663
		c0.584-0.292,0.821-1.002,0.529-1.586c-0.292-0.583-1.002-0.821-1.585-0.53c-2.004,1.213-3.167,3.442-3.017,5.779
		c-0.153,2.334,1.004,4.56,3.001,5.775c1.2,0.823,1.859,2.229,1.725,3.678c0.132,1.446-0.525,2.853-1.723,3.676
		c-0.552,0.309-0.763,0.999-0.478,1.563c0.285,0.565,0.964,0.806,1.542,0.545c2.009-1.213,3.174-3.442,3.022-5.784
		C39.198,46.164,38.041,43.939,36.044,42.722"/>
	<path fill="#D4D4D4" d="M43.133,42.722c-1.198-0.822-1.858-2.229-1.725-3.677c-0.131-1.439,0.522-2.839,1.71-3.663
		c0.378-0.188,0.626-0.565,0.651-0.986c0.026-0.422-0.176-0.825-0.528-1.058c-0.352-0.233-0.802-0.26-1.18-0.072
		c-2.004,1.213-3.167,3.442-3.018,5.779c-0.151,2.334,1.005,4.56,3.003,5.775c1.197,0.823,1.859,2.229,1.725,3.678
		c0.133,1.446-0.527,2.853-1.723,3.676c-0.582,0.296-0.815,1.007-0.52,1.589c0.295,0.582,1.007,0.814,1.589,0.52
		c2.006-1.214,3.169-3.444,3.017-5.784C46.287,46.164,45.131,43.939,43.133,42.722"/>
	<path fill="#D4D4D4" d="M28.954,42.722c-1.199-0.822-1.859-2.229-1.725-3.677c-0.131-1.439,0.522-2.839,1.71-3.663
		c0.584-0.292,0.821-1.002,0.529-1.586c-0.292-0.583-1.002-0.821-1.586-0.53c-2.004,1.213-3.167,3.442-3.017,5.779
		c-0.152,2.334,1.004,4.56,3.002,5.775c1.199,0.823,1.859,2.229,1.725,3.678c0.133,1.446-0.527,2.853-1.723,3.676
		c-0.553,0.309-0.764,0.999-0.479,1.563c0.286,0.565,0.965,0.806,1.542,0.545c2.009-1.213,3.174-3.442,3.022-5.784
		C32.107,46.164,30.951,43.939,28.954,42.722"/>
</g>
<rect x="-156.5" y="-156.5" fill="none" width="384" height="384"/>
</svg>
