<?xml version="1.0" encoding="utf-8"?>
<!-- Generator: Adobe Illustrator 16.0.0, SVG Export Plug-In . SVG Version: 6.00 Build 0)  -->
<!DOCTYPE svg PUBLIC "-//W3C//DTD SVG 1.1//EN" "http://www.w3.org/Graphics/SVG/1.1/DTD/svg11.dtd">
<svg version="1.1" id="Layer_1" xmlns="http://www.w3.org/2000/svg" xmlns:xlink="http://www.w3.org/1999/xlink" x="0px" y="0px"
	 width="62px" height="79px" viewBox="0 0 62 79" enable-background="new 0 0 62 79" xml:space="preserve">
<g>
	<path fill="#D4D4D4" d="M57.318,18.446H46.791V7.48C46.789,6.626,46.512,5.795,46,5.111l-2.632-3.509
		c-0.746-0.993-1.914-1.577-3.156-1.58H21.789c-1.242,0.003-2.411,0.587-3.157,1.58L16,5.109c-0.511,0.685-0.789,1.516-0.791,2.371
		v10.966H4.682c-2.179,0.002-3.945,1.768-3.948,3.947v52.636c0.003,2.18,1.769,3.945,3.948,3.947h52.637
		c2.18-0.002,3.945-1.768,3.947-3.947V22.393C61.264,20.213,59.498,18.448,57.318,18.446 M38.896,2.655h1.316
		c0.413,0,0.803,0.195,1.052,0.525l2.631,3.511c0.172,0.229,0.264,0.504,0.265,0.789v17.545c-0.001,0.727-0.59,1.315-1.316,1.316
		h-2.631c-0.727-0.001-1.315-0.589-1.316-1.316V2.655z M36.264,18.446H25.737V10.55h10.527V18.446z M25.737,2.655h10.527v5.263
		H25.737V2.655z M17.841,7.48c0.001-0.285,0.093-0.562,0.264-0.791l2.632-3.509c0.249-0.33,0.639-0.525,1.052-0.525h1.316v22.37
		c0,0.727-0.589,1.315-1.316,1.316h-2.632c-0.726-0.001-1.315-0.589-1.316-1.316V7.48z M4.682,21.077h10.527v3.948
		c0.003,2.18,1.769,3.945,3.948,3.947h2.632c2.18-0.002,3.945-1.768,3.948-3.947v-3.948h10.527v3.948
		c0.003,2.18,1.768,3.945,3.948,3.947h2.631c2.18-0.002,3.945-1.768,3.948-3.947v-3.948h10.527c0.727,0.001,1.315,0.589,1.315,1.316
		v27.633h-6.646C51.307,38.935,42.112,30.289,31,30.289s-20.307,8.646-20.988,19.738H3.366V22.393
		C3.367,21.667,3.956,21.078,4.682,21.077 M49.423,51.343c0,7.452-4.488,14.169-11.373,17.021
		c-6.884,2.853-14.808,1.276-20.077-3.993c-5.269-5.269-6.845-13.193-3.994-20.077C16.831,37.409,23.548,32.92,31,32.92
		C41.17,32.932,49.412,41.173,49.423,51.343 M57.318,76.346H4.682c-0.726-0.001-1.315-0.59-1.316-1.316v-22.37h6.646
		C10.693,63.751,19.888,72.397,31,72.397s20.307-8.646,20.987-19.738h6.646v22.37C58.634,75.756,58.045,76.345,57.318,76.346"/>
	<path fill="#D4D4D4" d="M31.771,44.764l-3.018,3.018l1.86,1.86l6.194-6.194l-6.194-6.194l-1.86,1.861l3.018,3.018h-3.404
		c-5.084,0.006-9.205,4.127-9.211,9.211v3.948h2.632v-3.948c0.004-3.632,2.948-6.575,6.579-6.579H31.771z"/>
	<path fill="#D4D4D4" d="M38.896,51.343c-0.005,3.632-2.948,6.575-6.579,6.58h-3.404l3.018-3.018l-1.861-1.861l-6.194,6.194
		l6.194,6.195l1.861-1.861l-3.018-3.018h3.404c5.084-0.006,9.205-4.127,9.21-9.212v-3.947h-2.631V51.343z"/>
</g>
<rect x="-107" y="-140.5" fill="none" width="276" height="360"/>
</svg>
