<?xml version="1.0" encoding="utf-8"?>
<!-- Generator: Adobe Illustrator 16.0.0, SVG Export Plug-In . SVG Version: 6.00 Build 0)  -->
<!DOCTYPE svg PUBLIC "-//W3C//DTD SVG 1.1//EN" "http://www.w3.org/Graphics/SVG/1.1/DTD/svg11.dtd">
<svg version="1.1" id="Layer_1" xmlns="http://www.w3.org/2000/svg" xmlns:xlink="http://www.w3.org/1999/xlink" x="0px" y="0px"
	 width="90px" height="87px" viewBox="0 0 90 87" enable-background="new 0 0 90 87" xml:space="preserve">
<path fill="#D4D4D4" d="M20.412,61.922c0-0.725-0.589-1.313-1.315-1.313H8.262c-0.726,0-1.314,0.588-1.314,1.313v7.389
	c0,0.725,0.588,1.312,1.314,1.312h10.834c0.726,0,1.315-0.587,1.315-1.312V61.922z M17.784,67.997H9.576v-4.762h8.208V67.997z"/>
<path fill="#D4D4D4" d="M60.63,61.922c0-0.725-0.588-1.313-1.311-1.313H48.484c-0.725,0-1.314,0.588-1.314,1.313v7.389
	c0,0.725,0.59,1.312,1.314,1.312H59.32c0.723,0,1.311-0.587,1.311-1.312V61.922z M58.005,67.997h-8.209v-4.762h8.209V67.997z"/>
<rect x="0.109" y="-30.087" fill="none" width="102.768" height="116.962"/>
<path fill="#D4D4D4" d="M42.081,63.399c0-0.726-0.588-1.313-1.313-1.313H26.813c-0.726,0-1.314,0.587-1.314,1.313v4.432
	c0,0.726,0.588,1.313,1.314,1.313h13.954c0.725,0,1.313-0.588,1.313-1.313V63.399z M39.455,66.519H28.126v-1.805h11.329V66.519z"/>
<path fill="#D4D4D4" d="M59.353,43.848l-13.385-8.835c-0.365-0.18-0.791-0.18-1.152,0l-1.637,0.042
	c-0.452,0.219-0.602,0.268-0.605,0.772v-0.63c0,2.166,0.263-0.198,1.914-0.198H15.782c-2.449-0.009-4.646,1.503-5.509,3.796
	l-5.1,13.744l-2.113,1.966c-1.811,1.548-2.851,3.811-2.843,6.192v20.253c0,3.239,2.61,5.926,5.849,5.926h3.804
	c3.268-0.019,5.914-2.658,5.943-5.926v-3.104h35.953v3.104c0,3.24,2.619,5.926,5.861,5.926h3.801
	c3.264-0.019,5.908-2.659,5.932-5.926V60.174c-0.014-2.233-0.936-4.364-2.553-5.902l-1.494-1.58l-2.623-6.62l1.271,3.094
	c-1.156-2.745-0.035,0.171-1.965-4.547l0.172,0.087c0.004-0.501-0.754-0.98-1.201-1.201L59.353,43.848z M12.737,39.683
	c0.481-1.258,1.699-2.081,3.045-2.059h30.563c0.666,0.658,1.396,1.376,2.17,1.904l9.49,6.428l2.223,5.951H8.184L12.737,39.683z
	 M13.187,80.949c-0.028,1.816-1.5,3.281-3.316,3.3H6.067c-1.792,0-3.222-1.509-3.222-3.3v-4.007c0.962,0.61,2.083,0.925,3.222,0.903
	h7.12V80.949z M63.753,83.271c-0.613,0.62-1.451,0.971-2.324,0.978h-3.801c-1.795,0-3.234-1.509-3.234-3.3v-3.104h7.035
	c1.166,0.021,2.311-0.29,3.309-0.901v4.005C64.728,81.822,64.375,82.657,63.753,83.271L63.753,83.271z M64.738,70.911v1.14
	c0,1.793-1.518,3.169-3.309,3.169H6.067c-0.85,0.016-1.671-0.311-2.278-0.907c-0.606-0.595-0.947-1.411-0.944-2.262V60.696
	c-0.007-1.624,0.704-3.167,1.938-4.218c0.016-0.014,0.024-0.051,0.039-0.064l1.99-1.88H61.47l1.418,1.538
	c0.016,0.019,0.066,0.049,0.086,0.068c1.111,1.047,1.748,2.504,1.764,4.033V70.911z M59.74,44.018c0,3.183,4.006,1.122,1.375,2.917
	l-1.779-3.129l-9.354-6.488c-2.633-1.793-4.783,1.062-4.783-2.122l-0.26,1.574l-0.516-0.043l13.252,6.091L59.74,44.018z"/>
<circle fill="none" stroke="#D4D4D4" stroke-width="2" stroke-miterlimit="10" cx="66.553" cy="24.034" r="22.044"/>
<polygon fill="none" points="0.109,5.171 0.109,86.875 76.554,86.875 102.876,-30.087 102.876,-30.087 "/>
<path fill="#D4D4D4" d="M84.271,23.937c0-4.741-1.91-9.044-5.004-12.179c-0.023-0.032-0.049-0.063-0.08-0.093
	c-0.027-0.029-0.059-0.055-0.092-0.079c-3.135-3.092-7.439-5.005-12.178-5.005c-4.744,0-9.047,1.913-12.184,5.005
	c-0.029,0.025-0.061,0.05-0.09,0.079s-0.057,0.061-0.08,0.093c-3.092,3.135-5.004,7.438-5.004,12.179
	c0,4.635,1.805,8.993,5.082,12.271c0.002,0,0.002,0.001,0.002,0.001h0.002v0.001c0.166,0.167,0.387,0.251,0.604,0.251
	s0.436-0.083,0.604-0.251c0.014-0.014,0.027-0.029,0.039-0.044l2.631-2.63c0.332-0.333,0.332-0.874,0-1.206
	c-0.332-0.335-0.873-0.335-1.207,0l-2.053,2.052c-2.393-2.664-3.781-6.016-3.973-9.592h2.9c0.471,0,0.855-0.382,0.855-0.854
	c0-0.471-0.385-0.854-0.855-0.854h-2.9c0.199-3.672,1.668-7.012,3.98-9.585l2.045,2.047c0.166,0.166,0.387,0.249,0.602,0.249
	c0.219,0,0.439-0.083,0.605-0.249c0.332-0.334,0.332-0.874,0-1.208l-2.047-2.047c2.572-2.309,5.912-3.78,9.586-3.978v2.902
	c0,0.473,0.385,0.854,0.855,0.854s0.852-0.381,0.852-0.854V8.312c3.672,0.198,7.014,1.669,9.586,3.979l-2.047,2.046
	c-0.334,0.334-0.334,0.874,0,1.208c0.166,0.166,0.385,0.249,0.604,0.249c0.217,0,0.436-0.083,0.602-0.249l2.049-2.047
	c2.309,2.573,3.779,5.913,3.979,9.585h-2.902c-0.473,0-0.855,0.383-0.855,0.854c0,0.472,0.383,0.854,0.855,0.854h2.902
	c-0.193,3.576-1.582,6.928-3.973,9.592l-2.055-2.052c-0.332-0.335-0.875-0.335-1.205,0c-0.334,0.332-0.334,0.873,0,1.206
	l2.674,2.673c0.166,0.167,0.381,0.25,0.604,0.25c0.107,0,0.219-0.021,0.32-0.062c0.102-0.042,0.197-0.105,0.281-0.188
	C82.466,32.931,84.271,28.573,84.271,23.937"/>
<rect x="49.56" y="6.581" fill="none" width="34.689" height="30.017"/>
<path fill="#D4D4D4" d="M70.835,14.149c-0.436-0.176-0.932,0.037-1.107,0.473l-2.469,6.158c-0.115-0.013-0.229-0.021-0.342-0.021
	c-1.203,0-2.289,0.665-2.834,1.736c-0.572,1.119-0.424,2.457,0.391,3.579c0.082,0.114,0.189,0.219,0.305,0.304
	c0.66,0.48,1.398,0.735,2.139,0.735c1.201,0,2.285-0.665,2.83-1.736c0.57-1.12,0.424-2.458-0.389-3.578
	c-0.086-0.115-0.188-0.22-0.305-0.304c-0.063-0.045-0.127-0.088-0.189-0.128l2.447-6.11C71.488,14.821,71.275,14.323,70.835,14.149
	 M68.226,24.602c-0.252,0.496-0.756,0.804-1.309,0.804c-0.367,0-0.734-0.127-1.094-0.377c-0.41-0.589-0.49-1.226-0.219-1.758
	c0.252-0.496,0.754-0.804,1.313-0.804c0.176,0,0.352,0.03,0.531,0.09c0.006,0.002,0.012,0.006,0.016,0.008
	c0.018,0.007,0.039,0.013,0.057,0.019c0.162,0.063,0.324,0.148,0.486,0.261C68.416,23.433,68.496,24.071,68.226,24.602"/>
<rect x="0.109" y="-30.087" fill="none" width="102.768" height="116.962"/>
</svg>
