<?xml version="1.0" encoding="utf-8"?>
<!-- Generator: Adobe Illustrator 16.0.0, SVG Export Plug-In . SVG Version: 6.00 Build 0)  -->
<!DOCTYPE svg PUBLIC "-//W3C//DTD SVG 1.1//EN" "http://www.w3.org/Graphics/SVG/1.1/DTD/svg11.dtd">
<svg version="1.1" id="Layer_1" xmlns="http://www.w3.org/2000/svg" xmlns:xlink="http://www.w3.org/1999/xlink" x="0px" y="0px"
	 width="77px" height="70px" viewBox="0 0 77 70" enable-background="new 0 0 77 70" xml:space="preserve">
<g>
	<path fill="#D4D4D4" d="M37.929,10.429c1.901,1.902,4.446,2.935,7.076,2.935c0.681,0,1.368-0.069,2.051-0.21
		c0.438-0.091,0.782-0.434,0.873-0.874c0.688-3.322-0.331-6.732-2.724-9.126c-2.394-2.394-5.807-3.412-9.127-2.725
		c-0.439,0.091-0.783,0.435-0.874,0.874C34.518,4.623,35.536,8.035,37.929,10.429L37.929,10.429 M37.29,2.514
		c2.332-0.251,4.648,0.556,6.324,2.23c1.675,1.675,2.481,3.994,2.23,6.324c-2.328,0.25-4.648-0.556-6.323-2.231v0.001
		C37.845,7.163,37.04,4.844,37.29,2.514"/>
	<path fill="#D4D4D4" d="M76.477,41.981c-0.615-1.317-1.952-2.168-3.406-2.168c-0.436,0-0.861,0.073-1.266,0.218l-20.682,6.805
		l-9.843-6.155h5.306c1.299,0,2.522-0.507,3.444-1.427c0.92-0.92,1.426-2.144,1.426-3.445c0-2.687-2.185-4.872-4.87-4.872h-2.611
		c1.546-0.417,3.146-0.638,4.767-0.648c0.725-0.004,1.433,0.031,2.116,0.104h0.001l0.002,0c5.736,0.605,10.799,3.763,13.888,8.666
		c0.214,0.339,0.579,0.525,0.954,0.525c0.204,0,0.411-0.057,0.598-0.174c0.526-0.331,0.684-1.025,0.352-1.553
		c-3.278-5.201-8.543-8.648-14.551-9.57v-5.259h4.202c9.343,0,16.942-7.601,16.942-16.942V2.406c0-0.621-0.503-1.125-1.126-1.125
		h-5.328c-9.341,0-16.94,7.6-16.94,16.942v3.674c0,0.002-0.001,0.004-0.001,0.006v6.158c-0.371-0.018-0.745-0.025-1.122-0.023
		c-3.709,0.023-7.335,1.027-10.51,2.898h-11.31c-0.211,0-0.418,0.06-0.597,0.172l-10.754,6.738l-2.239-3.801
		c-0.315-0.535-1.005-0.714-1.541-0.398L3.35,38.611c-0.258,0.151-0.444,0.398-0.519,0.688c-0.075,0.288-0.032,0.596,0.12,0.853
		l1.603,2.72L0.72,45.129c-0.535,0.315-0.714,1.006-0.399,1.541c0.21,0.356,0.585,0.554,0.971,0.554c0.194,0,0.391-0.05,0.57-0.155
		l3.833-2.258l8.721,14.807L0.72,67.688c-0.536,0.314-0.714,1.004-0.399,1.54c0.21,0.355,0.585,0.554,0.971,0.554
		c0.194,0,0.391-0.05,0.57-0.156l13.697-8.068l1.603,2.721c0.209,0.356,0.584,0.554,0.97,0.554c0.194,0,0.39-0.05,0.57-0.154
		l8.428-4.965c0.536-0.315,0.714-1.005,0.398-1.541l-2.095-3.558l5.062-3.098l9.942,6.034c0.177,0.106,0.379,0.162,0.584,0.162
		h13.35c0.187,0,0.368-0.045,0.532-0.134l19.899-10.664C76.6,45.981,77.334,43.813,76.477,41.981 M66.792,3.532h4.204v2.556
		c0,8.101-6.591,14.691-14.692,14.691h-2.446l10.436-9.623c0.456-0.421,0.485-1.134,0.063-1.59c-0.421-0.457-1.133-0.485-1.59-0.064
		l-10.665,9.834v-1.113C52.101,10.123,58.691,3.532,66.792,3.532 M18.53,62.166l-1.6-2.716c-0.001-0.002-0.002-0.004-0.002-0.005
		c-0.001-0.003-0.002-0.004-0.003-0.005L7.072,42.713c-0.002-0.005-0.005-0.01-0.008-0.015c-0.002-0.005-0.006-0.009-0.009-0.014
		l-1.593-2.706l6.488-3.821l10.992,18.661c0,0,0,0.001,0,0.001l0,0l2.076,3.524L18.53,62.166z M73.752,44.924L54.09,55.462H41.336
		l-10.26-6.227c-0.36-0.218-0.812-0.217-1.171,0.003l-5.615,3.437L16.7,39.787l10.532-6.6h19.354c1.445,0,2.619,1.175,2.619,2.621
		c0,0.701-0.271,1.359-0.766,1.854c-0.496,0.495-1.154,0.767-1.854,0.767h-9.228c-0.502,0-0.943,0.334-1.082,0.815
		c-0.139,0.482,0.059,0.998,0.485,1.266l13.616,8.514c0.283,0.177,0.63,0.22,0.948,0.114l21.198-6.974
		c0.012-0.004,0.024-0.008,0.035-0.012c0.162-0.06,0.335-0.09,0.511-0.09c0.584,0,1.122,0.342,1.368,0.873
		C74.783,43.671,74.487,44.542,73.752,44.924"/>
</g>
<rect x="-217.5" y="-197.273" fill="none" width="511.999" height="464.547"/>
</svg>
