<?xml version="1.0" encoding="utf-8"?>
<!-- Generator: Adobe Illustrator 16.0.0, SVG Export Plug-In . SVG Version: 6.00 Build 0)  -->
<!DOCTYPE svg PUBLIC "-//W3C//DTD SVG 1.1//EN" "http://www.w3.org/Graphics/SVG/1.1/DTD/svg11.dtd">
<svg version="1.1" id="Layer_1" xmlns="http://www.w3.org/2000/svg" xmlns:xlink="http://www.w3.org/1999/xlink" x="0px" y="0px"
	 width="73px" height="73px" viewBox="0 0 73 73" enable-background="new 0 0 73 73" xml:space="preserve">
<g>
	<path fill="#D4D4D4" d="M58.4,21.9C58.4,9.806,48.595,0,36.5,0S14.6,9.806,14.6,21.9c0,12.094,9.805,21.899,21.9,21.899
		C48.59,43.786,58.386,33.99,58.4,21.9 M36.5,2.434c2.954,0.003,5.867,0.683,8.517,1.989v0.974l-5.493,3.295
		c-0.285,0.171-0.488,0.451-0.561,0.776c-0.073,0.324-0.01,0.665,0.175,0.941l1.88,2.82l-2.968,2.968l-0.461-0.923
		c-0.3-0.602-1.031-0.846-1.632-0.545l-4.867,2.433c-0.602,0.3-0.846,1.032-0.545,1.633l2.433,4.867
		c0.118,0.236,0.309,0.428,0.545,0.545l1.76,0.879v2.395l-1.573-1.573c-0.228-0.228-0.538-0.356-0.86-0.356h-5.26l-2.126-5.318
		c-0.048-0.119-0.114-0.229-0.196-0.328l-5.801-6.96v-0.447C22.892,6.294,29.415,2.44,36.5,2.434 M17.033,21.9
		c0.005-2.268,0.408-4.517,1.192-6.645l5.049,6.059l2.361,5.903c0.185,0.462,0.633,0.765,1.13,0.765h5.58l3.293,3.294
		c0.228,0.228,0.538,0.356,0.86,0.356c0.16,0,0.318-0.031,0.466-0.093c0.454-0.188,0.751-0.632,0.751-1.124v-6.083
		c0-0.461-0.261-0.883-0.673-1.089l-2.068-1.034l-1.703-3.417l2.69-1.345l0.671,1.345c0.175,0.35,0.508,0.594,0.895,0.657
		c0.386,0.065,0.779-0.063,1.055-0.341l4.866-4.867c0.411-0.41,0.475-1.053,0.152-1.536l-1.726-2.588l4.989-2.994
		c0.363-0.221,0.586-0.617,0.585-1.042V5.818c8.011,5.42,10.797,15.919,6.527,24.599h-0.444v-2.434c0-0.672-0.545-1.216-1.217-1.216
		h-7.3c-0.322,0-0.632,0.128-0.86,0.356l-7.3,7.3c-0.245,0.245-0.374,0.582-0.354,0.927c0.019,0.346,0.184,0.667,0.454,0.883
		l5.323,4.259c-5.909,1.837-12.34,0.755-17.323-2.914C19.974,33.908,17.032,28.088,17.033,21.9 M44.789,39.488
		c-0.062-0.106-0.139-0.204-0.229-0.288l-5.022-4.015l5.982-5.985H51.1v2.434c0,0.672,0.545,1.216,1.217,1.216h0.266
		C50.619,35.715,47.93,38.006,44.789,39.488"/>
	<path fill="#D4D4D4" d="M16.721,35.683c-1.868-1.869-4.799-2.15-6.987-0.669V18.25c0-2.688-2.179-4.866-4.867-4.866
		S0,15.563,0,18.25v31.921l8.517,17.033V73h18.25V49.257c0.006-2.26-0.892-4.429-2.494-6.022L16.721,35.683z M24.333,70.566H10.95
		V66.63L2.433,49.597V18.25c0-1.344,1.09-2.433,2.434-2.433S7.3,16.906,7.3,18.25v21.379c-0.002,1.431,0.553,2.806,1.548,3.833
		l7.013,7.266l1.752-1.688l-7.014-7.267c-1.18-1.221-1.16-3.162,0.044-4.357c1.205-1.196,3.146-1.201,4.358-0.012l7.55,7.552
		c1.145,1.139,1.787,2.688,1.783,4.302V70.566z"/>
	<path fill="#D4D4D4" d="M68.134,13.384c-2.688,0-4.867,2.179-4.867,4.867v16.76c-2.189-1.478-5.12-1.196-6.987,0.672l-7.552,7.552
		c-1.602,1.594-2.5,3.763-2.494,6.022V73h18.25v-5.796L73,50.171V18.25C73,15.563,70.821,13.384,68.134,13.384 M70.566,49.597
		L62.05,66.63v3.937H48.667v-21.31c-0.005-1.614,0.637-3.163,1.78-4.302L58,37.403c1.211-1.189,3.152-1.184,4.357,0.012
		c1.204,1.195,1.225,3.137,0.044,4.357l-7.014,7.267l1.752,1.688l7.013-7.266c0.995-1.027,1.55-2.402,1.548-3.833V18.25
		c0-1.344,1.089-2.434,2.434-2.434c1.344,0,2.433,1.089,2.433,2.434V49.597z"/>
</g>
<rect x="-203.5" y="-203.5" fill="none" width="480" height="480"/>
</svg>
