<?xml version="1.0" encoding="UTF-8"?>
<!-- Generator: Adobe Illustrator 24.1.3, SVG Export Plug-In . SVG Version: 6.00 Build 0)  -->
<svg version="1.1" id="Layer_1" xmlns="http://www.w3.org/2000/svg" xmlns:xlink="http://www.w3.org/1999/xlink" x="0px" y="0px" viewBox="0 0 71 71" style="enable-background:new 0 0 71 71;" xml:space="preserve" width="75px" height="75px">
<style type="text/css">
	.st0{fill:none;}
	.st1{clip-path:url(#SVGID_2_);fill:#D4D4D4;}
	.st2{fill:#D4D4D4;}
</style>
<rect x="-156.5" y="-156.5" class="st0" width="75px" height="75px"/>
<g>
	<g>
		<defs>
			<rect id="SVGID_1_" x="0.1" y="5" width="70.8" height="62.3"/>
		</defs>
		<clipPath id="SVGID_2_">
			<use xlink:href="#SVGID_1_" style="overflow:visible;"/>
		</clipPath>
		<path class="st1" d="M70.8,49.4c-0.5-1.8-2-3.1-3.8-3.4V19.1h2.3c0.6,0,1.2-0.5,1.2-1.2V6.2C70.5,5.5,70,5,69.3,5H17.7    c-0.6,0-1.2,0.5-1.2,1.2v11.7c0,0.6,0.5,1.2,1.2,1.2H20v23.5h-1.2c-2.9,0-5.8,0.8-8.2,2.4V39c0-0.6-0.5-1.2-1.2-1.2H1.3    c-0.6,0-1.2,0.5-1.2,1.2v27c0,0.6,0.5,1.2,1.2,1.2h8.2c0.6,0,1.2-0.5,1.2-1.2v-5.9c2.4,1.6,5.3,2.4,8.2,2.4h19.3    c1.3,0,2.7-0.2,4-0.5l25.4-6.8C70,54.5,71.5,51.9,70.8,49.4L70.8,49.4z M18.9,7.3h49.3v9.4H18.9V7.3z M22.4,19.1h42.2v27.1    L51,49.8c-0.6-1.3-1.7-2.3-3.1-2.7l-15.8-4.2c-0.9-0.2-1.8-0.4-2.7-0.4h-7V19.1z M8.3,64.8H2.5V40.2h5.9V64.8z M66.9,52.9    l-25.4,6.8c-1.1,0.3-2.2,0.4-3.3,0.4H18.9c-2.8,0-5.5-0.9-7.7-2.6l-0.5-0.4v-9.4l0.5-0.4c2.2-1.7,4.9-2.6,7.7-2.6h10.5    c0.7,0,1.4,0.1,2.1,0.3l15.8,4.2c0.9,0.3,1.6,1.1,1.7,2c0,0,0,0.1,0,0.1c0,0.1,0,0.1,0,0.2c0,0.2,0,0.4-0.1,0.6    c-0.3,1-1.2,1.7-2.3,1.7c-0.2,0-0.4,0-0.6-0.1l-10-2.7c-0.4-0.1-0.9,0-1.2,0.3c-0.3,0.3-0.4,0.7-0.3,1.2c0.1,0.4,0.4,0.7,0.9,0.8    l10,2.7c0.4,0.1,0.8,0.2,1.2,0.2c2.1,0,4-1.4,4.5-3.4c0.1-0.2,0.1-0.5,0.1-0.7l14.3-3.8c0.1,0,0.2-0.1,0.3-0.1    c1.2-0.2,2.3,0.6,2.6,1.7c0.1,0.2,0.1,0.4,0.1,0.6C68.6,51.7,67.9,52.6,66.9,52.9L66.9,52.9z M66.9,52.9"/>
	</g>
	<path class="st2" d="M37.6,23.7h11.7c0.6,0,1.2-0.5,1.2-1.2c0-0.6-0.5-1.2-1.2-1.2H37.6c-0.6,0-1.2,0.5-1.2,1.2   C36.5,23.2,37,23.7,37.6,23.7L37.6,23.7z M37.6,23.7"/>
</g>
</svg>