<?xml version="1.0" encoding="utf-8"?>
<!-- Generator: Adobe Illustrator 16.0.0, SVG Export Plug-In . SVG Version: 6.00 Build 0)  -->
<!DOCTYPE svg PUBLIC "-//W3C//DTD SVG 1.1//EN" "http://www.w3.org/Graphics/SVG/1.1/DTD/svg11.dtd">
<svg version="1.1" id="Layer_1" xmlns="http://www.w3.org/2000/svg" xmlns:xlink="http://www.w3.org/1999/xlink" x="0px" y="0px"
	 width="36px" height="79px" viewBox="0 0 36 79" enable-background="new 0 0 36 79" xml:space="preserve">
<g>
	<polygon fill="#D4D4D4" points="0.006,33.908 0.006,40.361 1.38,42.561 0.006,45.311 0.006,78.824 35.994,78.824 35.994,65.344 
		33.681,65.344 33.681,76.512 2.32,76.512 2.32,45.856 4.03,42.436 2.32,39.698 2.32,33.908 	"/>
	<path fill="#D4D4D4" d="M11.385,2.423h13.23V8.87h-13.23V2.423z M9.071,0.109v11.151h1.424v3.374L0.006,22.321v8.486H2.32v-7.313
		l10.489-7.687v-4.546H23.19v4.547l10.49,7.686v16.205l-1.711,2.737l1.711,3.421v16.387h2.313V45.311l-1.375-2.75l1.375-2.199
		V22.321l-10.49-7.686v-3.374h1.425V0.109H9.071z"/>
	<polygon fill="#D4D4D4" points="11.568,37.617 11.073,36.227 8.894,37.002 10.653,41.946 15.598,40.186 14.822,38.006 
		13.787,38.375 18.005,30.485 20.687,35.454 22.722,34.355 17.995,25.596 	"/>
	<polygon fill="#D4D4D4" points="16.845,49.159 15.927,50.076 17.563,51.713 21.274,48 17.563,44.29 15.927,45.927 16.845,46.844 
		9.168,46.844 11.154,43.163 9.118,42.064 5.29,49.159 	"/>
	<polygon fill="#D4D4D4" points="27.104,36.768 21.986,35.605 20.823,40.724 23.08,41.234 23.301,40.261 26.837,46.844 
		21.836,46.844 21.836,49.159 30.705,49.159 25.079,38.681 26.591,39.024 	"/>
	<path fill="#D4D4D4" d="M20.866,65.868h-2.314v-2.314h2.314V65.868z M17.01,65.868h-2.314v-2.314h2.314V65.868z"/>
</g>
</svg>
