<?xml version="1.0" encoding="utf-8"?>
<!-- Generator: Adobe Illustrator 16.0.0, SVG Export Plug-In . SVG Version: 6.00 Build 0)  -->
<!DOCTYPE svg PUBLIC "-//W3C//DTD SVG 1.1//EN" "http://www.w3.org/Graphics/SVG/1.1/DTD/svg11.dtd">
<svg version="1.1" id="Layer_1" xmlns="http://www.w3.org/2000/svg" xmlns:xlink="http://www.w3.org/1999/xlink" x="0px" y="0px"
	 width="62px" height="79px" viewBox="0 0 62 79" enable-background="new 0 0 62 79" xml:space="preserve">
<rect x="-172" y="-216.5" fill="none" width="406" height="512"/>
<rect x="-172" y="-216.5" fill="none" width="406" height="512"/>
<g>
	<path fill="#D4D4D4" d="M41.842,34.913c0.146,0.05,0.296,0.073,0.442,0.073c0.573,0,1.109-0.36,1.303-0.935
		c0.432-1.265,1.81-1.943,3.073-1.515c2.702,0.915,5.65-0.536,6.566-3.239c0.245-0.719-0.141-1.502-0.86-1.747
		c-0.724-0.244-1.503,0.142-1.747,0.862c-0.431,1.265-1.809,1.945-3.074,1.515c-2.697-0.91-5.649,0.537-6.565,3.239
		C40.735,33.885,41.121,34.668,41.842,34.913"/>
	<path fill="#D4D4D4" d="M45.1,25.318c0.146,0.05,0.296,0.073,0.441,0.073c0.575,0,1.11-0.361,1.304-0.935
		c0.209-0.613,0.642-1.108,1.224-1.395c0.581-0.286,1.237-0.327,1.851-0.119c2.701,0.915,5.648-0.536,6.566-3.241
		c0.244-0.718-0.143-1.502-0.861-1.747c-0.72-0.248-1.503,0.142-1.747,0.862c-0.429,1.267-1.805,1.946-3.073,1.517
		c-1.31-0.446-2.714-0.354-3.953,0.258c-1.239,0.611-2.167,1.67-2.611,2.98C43.992,24.29,44.379,25.073,45.1,25.318"/>
	<path fill="#D4D4D4" d="M48.354,15.723c0.146,0.049,0.297,0.073,0.444,0.073c0.574,0,1.109-0.361,1.304-0.936
		c0.316-0.934,1.337-1.436,2.269-1.119c1.15,0.39,2.384,0.31,3.473-0.226c1.087-0.538,1.901-1.465,2.292-2.616
		c0.245-0.718-0.141-1.502-0.86-1.747c-0.724-0.247-1.503,0.141-1.747,0.861c-0.155,0.453-0.476,0.82-0.904,1.031
		c-0.428,0.21-0.913,0.242-1.367,0.086c-2.371-0.8-4.958,0.472-5.763,2.842C47.25,14.695,47.634,15.478,48.354,15.723"/>
	<path fill="#D4D4D4" d="M58.33,34.811c-0.239-0.163-0.509-0.257-0.785-0.293c2.736-8.892,4.237-17.602,4.452-25.899
		c0.067-2.609-1.207-6.093-3.778-7.706c-1.233-0.775-3.256-1.414-5.88-0.063c-4.113,2.123-7.055,8.365-9.418,13.382
		c-0.136,0.289-0.27,0.571-0.401,0.851c-0.522-2.4-2.109-4.453-4.364-5.525C37.624,7.002,35.597,5,33.05,4.481
		c-0.027-0.143-0.063-0.284-0.105-0.426c-0.524-1.792-2.106-3.142-3.937-3.36c-1.031-0.122-2.053,0.091-2.926,0.602
		c-0.744-0.415-1.579-0.634-2.435-0.634c-2.395,0-4.407,1.67-4.931,3.905c-2.618,0.712-4.538,3.115-4.558,5.908
		c-2.987,0.771-5.163,3.47-5.163,6.681c0,0.851,0.16,1.693,0.467,2.488c-0.775,0.957-1.205,2.155-1.205,3.413
		c0,0.754,0.155,1.481,0.449,2.153c-1.375-1.501-3.312-2.728-5.486-2.648c-0.76,0.024-1.358,0.66-1.335,1.42
		c0.023,0.745,0.636,1.334,1.376,1.334c0.047,0.002,0.088-0.002,0.133-0.002c1.291,0,2.49,0.854,3.363,1.844
		c-2.184,0.63-4.817,1.654-6.045,3.971c-0.74,1.397-0.826,3.112-0.333,5.076c-0.238,0.398-0.369,0.861-0.345,1.353l2.344,33.307
		c0.214,4.176,3.656,7.446,7.837,7.446H48.87c4.181,0,7.623-3.271,7.835-7.422l2.402-34.464c0-0.008,0.002-0.016,0.002-0.024
		C59.148,35.766,58.854,35.172,58.33,34.811 M43.643,19.021c0.545-1.018,1.14-2.279,1.77-3.616
		c2.069-4.396,4.906-10.414,8.188-12.108c1.198-0.617,2.229-0.63,3.155-0.053c1.596,1.002,2.535,3.532,2.489,5.303
		c-0.211,8.141-1.698,16.708-4.422,25.466c-0.09,0.288-0.287,0.869-0.57,1.667l-2.347,1.042c-0.05,0.023-0.101,0.049-0.148,0.078
		c-0.677,0.407-1.438,0.607-2.198,0.616c-0.76-0.009-1.518-0.209-2.196-0.616l-0.981-0.589c-1.129-0.677-2.395-1.016-3.66-1.016
		c-0.015,0-0.03,0.002-0.047,0.002c-1.28-0.008-2.563,0.326-3.707,1.013l-0.98,0.589c-0.547,0.328-1.151,0.488-1.763,0.556
		c0.034-0.119,0.075-0.237,0.11-0.355c0.377-1.282,0.782-2.546,1.206-3.8c0.161-0.477,0.329-0.95,0.497-1.423
		c0.354-0.996,0.725-1.979,1.107-2.955c0.171-0.437,0.338-0.877,0.514-1.31C40.859,24.585,42.185,21.745,43.643,19.021
		 M26.088,22.287c0.161-0.207,0.317-0.407,0.467-0.603c0-0.002,0.001-0.004,0.002-0.005c0.109-0.145,0.204-0.295,0.284-0.446
		c0.339-0.637,0.418-1.353,0.262-2.053l5.748-1.257c0.039,0.176,0.08,0.351,0.146,0.514c0.258,0.63,0.718,1.155,1.357,1.521
		c0.209,0.116,0.429,0.231,0.654,0.351c0.186,0.098,0.372,0.199,0.559,0.302c0.089,0.048,0.181,0.096,0.271,0.146
		c0.163,0.092,0.322,0.194,0.481,0.294c0.137,0.084,0.271,0.171,0.403,0.264c0.152,0.105,0.3,0.222,0.445,0.341
		c0.128,0.105,0.25,0.219,0.372,0.336c0.13,0.128,0.26,0.258,0.38,0.401c0.212,0.253,0.415,0.517,0.582,0.832
		c-0.584,1.289-1.134,2.604-1.665,3.93c-0.083,0.206-0.17,0.406-0.252,0.61c-1.509,0.382-2.967,1.099-4.769,2.381
		c-2.27,1.613-3.959,2.041-6.743,1.638l-0.836-3.827C23.67,25.371,24.9,23.803,26.088,22.287 M32.917,13.924
		c0.035-0.006,0.072-0.011,0.107-0.011c0.26,0,0.504,0.187,0.56,0.448c0.045,0.198-0.029,0.354-0.079,0.429
		c-0.049,0.075-0.157,0.205-0.354,0.248l-7.607,1.665c-0.303,0.066-0.611-0.135-0.678-0.435c-0.065-0.301,0.134-0.611,0.435-0.677
		l4.042-0.885L32.917,13.924z M28.466,35.223c-0.104,0.007-0.21,0.009-0.315,0.021c-0.75,0.076-1.492,0.266-2.195,0.582
		l-0.263-1.205c0.397,0.033,0.792,0.066,1.162,0.066c2.402,0,4.335-0.715,6.557-2.296c0.7-0.499,1.319-0.876,1.909-1.188
		c-0.127,0.359-0.252,0.717-0.374,1.078c-0.089,0.258-0.184,0.513-0.27,0.774c-0.404,1.226-0.79,2.46-1.149,3.707l-0.916-0.548
		c-1.129-0.677-2.394-1.016-3.66-1.016c-0.017,0-0.034,0.003-0.051,0.003C28.756,35.198,28.61,35.215,28.466,35.223 M11.996,20.983
		l0.902-0.743l-0.585-1.009c-0.367-0.634-0.561-1.35-0.561-2.074c0-2.231,1.747-4.05,3.979-4.144l1.671-0.07l-0.39-1.628
		c-0.066-0.272-0.1-0.541-0.1-0.796c0-1.773,1.386-3.267,3.154-3.402l1.273-0.096V5.65c0.04-1.237,1.06-2.233,2.309-2.233
		c0.719,0,1.234,0.328,1.539,0.603l0.965,0.871l0.925-0.914c0.424-0.418,1.006-0.614,1.607-0.545
		c0.738,0.087,1.404,0.663,1.619,1.402c0.073,0.248,0.094,0.487,0.065,0.731l-0.161,1.538h1.55c1.98,0,3.635,1.547,3.771,3.521
		l0.063,0.905l0.854,0.299c2.151,0.757,3.568,2.793,3.52,5.072c-0.021,0.974-0.335,1.911-0.904,2.733
		c-0.92-0.782-1.913-1.309-2.748-1.748c-0.216-0.115-0.425-0.225-0.636-0.342c-0.06-0.034-0.132-0.091-0.156-0.236
		c-0.032-0.198,0.042-0.437,0.192-0.611c0.6-0.697,0.841-1.646,0.646-2.543l-0.166-0.759c-0.167-0.766-0.624-1.419-1.285-1.844
		c-0.659-0.423-1.445-0.564-2.209-0.397l-0.369,0.082c-0.004,0.001-0.008,0-0.012,0.001l-4.042,0.884l-3.943,0.861
		c-0.764,0.167-1.419,0.623-1.843,1.285c-0.424,0.66-0.564,1.446-0.398,2.21l0.083,0.375v0.004c0,0.002,0.001,0.003,0.001,0.006
		l0.082,0.373c0.199,0.917,0.836,1.69,1.703,2.062c0.215,0.092,0.395,0.267,0.457,0.445c0.036,0.103,0.015,0.154-0.065,0.287v0.001
		c-0.136,0.183-0.284,0.369-0.434,0.561c-0.152,0.192-0.309,0.395-0.469,0.604c-0.054,0.07-0.104,0.143-0.158,0.214
		c-0.115,0.156-0.229,0.314-0.342,0.479c-0.062,0.089-0.121,0.182-0.182,0.276c-0.104,0.161-0.205,0.327-0.305,0.498
		c-0.057,0.099-0.114,0.197-0.169,0.3c-0.104,0.193-0.197,0.395-0.29,0.602c-0.04,0.088-0.082,0.172-0.118,0.265
		c-0.121,0.3-0.229,0.614-0.314,0.944c-0.014,0.053-0.019,0.109-0.031,0.163c-0.066,0.281-0.12,0.571-0.155,0.875
		c-0.013,0.121-0.016,0.248-0.024,0.373c-0.011,0.163-0.032,0.317-0.032,0.486c-0.006-0.006-0.011-0.014-0.016-0.02
		c-0.019-0.025-0.039-0.047-0.057-0.072c-0.239-0.315-0.479-0.605-0.72-0.882c-0.076-0.086-0.153-0.17-0.229-0.253
		c-0.203-0.218-0.405-0.424-0.609-0.617c-0.066-0.062-0.132-0.129-0.2-0.19c-0.257-0.23-0.516-0.44-0.776-0.628
		c-0.073-0.052-0.148-0.096-0.221-0.146c-0.196-0.131-0.391-0.252-0.59-0.359c-0.096-0.052-0.191-0.103-0.289-0.15
		c-0.206-0.1-0.412-0.186-0.619-0.26c-0.069-0.025-0.139-0.058-0.207-0.081c-0.225-0.071-0.452-0.129-0.681-0.171
		c-0.026-0.006-0.053-0.003-0.079-0.007c-0.047-0.008-0.092-0.026-0.139-0.033c-0.16-0.023-0.312-0.014-0.469-0.025
		c-0.11-0.007-0.219-0.03-0.329-0.03c-0.033,0-0.068,0.008-0.102,0.008c-0.214,0.002-0.42,0.028-0.628,0.053
		c-0.104,0.014-0.207,0.022-0.311,0.041c-0.271,0.049-0.534,0.119-0.794,0.201c-0.04,0.013-0.079,0.022-0.119,0.036
		c-0.686,0.232-1.335,0.563-1.944,0.96c-0.125-0.31-0.192-0.643-0.192-0.986C11.014,22.251,11.373,21.496,11.996,20.983
		 M3.148,32.417c0.583-1.097,1.997-1.935,4.453-2.637c1.148-0.328,2.214-0.941,3.079-1.767c0.392-0.375,0.76-0.694,1.115-0.983
		c1.11-0.902,2.067-1.393,2.933-1.504c0.02-0.002,0.039-0.005,0.058-0.007c0.274-0.03,0.54-0.021,0.797,0.024
		c0.067,0.012,0.137,0.036,0.206,0.054c0.127,0.031,0.254,0.063,0.382,0.115c0.082,0.031,0.165,0.08,0.249,0.118
		c0.119,0.058,0.238,0.11,0.358,0.183c0.094,0.056,0.187,0.13,0.281,0.195c0.111,0.078,0.223,0.149,0.336,0.241
		c0.105,0.083,0.209,0.186,0.314,0.28c0.105,0.095,0.21,0.182,0.314,0.288c0.116,0.117,0.233,0.253,0.35,0.384
		c0.095,0.106,0.19,0.204,0.287,0.318c0.131,0.157,0.263,0.335,0.395,0.509c0.084,0.11,0.167,0.209,0.25,0.327
		c0.151,0.209,0.302,0.441,0.454,0.673c0.066,0.102,0.133,0.193,0.199,0.297c0.219,0.346,0.439,0.713,0.661,1.104
		c1.013,1.788,1.35,4.43,0.909,6.732c-0.074-0.007-0.146-0.018-0.218-0.029c-0.524-0.09-1.03-0.258-1.49-0.533l-0.982-0.589
		c-1.129-0.678-2.395-1.016-3.66-1.016c-0.015,0-0.03,0.002-0.047,0.002c-1.281-0.008-2.564,0.327-3.708,1.014l-0.477,0.287
		c-0.833,0.5-1.767,0.751-2.701,0.76c-0.936-0.008-1.867-0.259-2.7-0.76l-1.852-1.113c0,0-0.001,0-0.001-0.001
		c-0.244-0.145-0.506-0.244-0.777-0.293C2.699,34,2.776,33.119,3.148,32.417 M53.962,70.723c-0.139,2.71-2.373,4.833-5.087,4.833
		H10.22c-2.715,0-4.948-2.123-5.089-4.858L2.839,38.141l1.198,0.719c1.298,0.78,2.757,1.163,4.211,1.154
		c1.456,0.009,2.912-0.374,4.21-1.154l0.479-0.287c0.677-0.408,1.437-0.609,2.196-0.617c0.76,0.008,1.519,0.209,2.197,0.617
		l0.982,0.589c1.242,0.746,2.649,1.064,4.041,0.989c0.123-0.005,0.248-0.005,0.373-0.017c0.016-0.001,0.03-0.01,0.046-0.011
		c0.94-0.105,1.863-0.402,2.713-0.887c0.081-0.029,0.166-0.03,0.24-0.074l0.982-0.589c0.677-0.408,1.436-0.609,2.196-0.617
		c0.76,0.008,1.519,0.209,2.198,0.617l0.981,0.589c1.043,0.624,2.202,0.948,3.368,0.996c0.023,0.001,0.049,0.004,0.071,0.004
		c0.402,0.013,0.805,0,1.204-0.057c0.229-0.029,0.45-0.086,0.675-0.138c0.108-0.025,0.217-0.05,0.325-0.081
		c0.611-0.169,1.21-0.391,1.768-0.725l0.982-0.59c0.677-0.407,1.437-0.608,2.196-0.617c0.76,0.008,1.519,0.209,2.198,0.617
		l0.981,0.59c1.138,0.68,2.414,1.016,3.688,1.01c0.021,0,0.043,0.004,0.063,0.004c1.237,0,2.475-0.322,3.585-0.969l2.701-1.201
		c0.058-0.026,0.1-0.076,0.153-0.109l0.211-0.094L53.962,70.723z"/>
	<path fill="#D4D4D4" d="M8.295,59.28h9.64c0.76,0,1.377-0.615,1.377-1.377c0-0.761-0.617-1.377-1.377-1.377h-9.64
		c-0.759,0-1.376,0.616-1.376,1.377C6.919,58.665,7.536,59.28,8.295,59.28"/>
	<path fill="#D4D4D4" d="M8.295,64.789h12.394c0.76,0,1.377-0.615,1.377-1.377s-0.617-1.377-1.377-1.377H8.295
		c-0.759,0-1.376,0.615-1.376,1.377S7.536,64.789,8.295,64.789"/>
	<path fill="#D4D4D4" d="M23.443,67.544H8.295c-0.76,0-1.376,0.615-1.376,1.377c0,0.761,0.617,1.376,1.376,1.376h15.147
		c0.76,0,1.377-0.615,1.377-1.376C24.82,68.159,24.203,67.544,23.443,67.544"/>
	<path fill="#D4D4D4" d="M31.705,67.544h-2.754c-0.76,0-1.377,0.615-1.377,1.377c0,0.761,0.617,1.376,1.377,1.376h2.754
		c0.76,0,1.377-0.615,1.377-1.376C33.082,68.159,32.465,67.544,31.705,67.544"/>
</g>
<rect x="-172" y="-216.5" fill="none" width="406" height="512"/>
</svg>
