<?xml version="1.0" encoding="utf-8"?>
<!-- Generator: Adobe Illustrator 16.0.0, SVG Export Plug-In . SVG Version: 6.00 Build 0)  -->
<!DOCTYPE svg PUBLIC "-//W3C//DTD SVG 1.1//EN" "http://www.w3.org/Graphics/SVG/1.1/DTD/svg11.dtd">
<svg version="1.1" id="Layer_1" xmlns="http://www.w3.org/2000/svg" xmlns:xlink="http://www.w3.org/1999/xlink" x="0px" y="0px"
	 width="17px" height="13px" viewBox="0 0 17 13" enable-background="new 0 0 17 13" xml:space="preserve">
<path fill="#FFFFFF" d="M16.469,1.559c-0.593,0.26-1.225,0.432-1.883,0.516c0.678-0.404,1.195-1.04,1.438-1.806
	c-0.631,0.376-1.328,0.642-2.069,0.791c-0.603-0.639-1.455-1.034-2.388-1.034C9.756,0.026,8.3,1.494,8.3,3.295
	c0,0.258,0.022,0.507,0.076,0.745C5.66,3.907,3.256,2.605,1.642,0.622C1.359,1.11,1.193,1.67,1.193,2.272
	c0,1.131,0.583,2.135,1.452,2.716c-0.525-0.01-1.04-0.163-1.477-0.403v0.036c0,1.587,1.133,2.906,2.618,3.21
	C3.521,7.904,3.231,7.939,2.93,7.939c-0.209,0-0.42-0.014-0.618-0.058c0.423,1.293,1.625,2.245,3.053,2.275
	c-1.111,0.868-2.523,1.395-4.051,1.395c-0.269,0-0.525-0.012-0.782-0.046c1.447,0.936,3.163,1.469,5.012,1.469
	c6.013,0,9.299-4.98,9.299-9.3c0-0.145-0.005-0.284-0.012-0.422C15.479,2.795,16.023,2.22,16.469,1.559"/>
<rect x="-247.5" y="-201.5" fill="none" width="512" height="416"/>
</svg>
