<?xml version="1.0" encoding="utf-8"?>
<!-- Generator: Adobe Illustrator 16.0.0, SVG Export Plug-In . SVG Version: 6.00 Build 0)  -->
<!DOCTYPE svg PUBLIC "-//W3C//DTD SVG 1.1//EN" "http://www.w3.org/Graphics/SVG/1.1/DTD/svg11.dtd">
<svg version="1.1" id="Layer_1" xmlns="http://www.w3.org/2000/svg" xmlns:xlink="http://www.w3.org/1999/xlink" x="0px" y="0px"
	 width="17px" height="13px" viewBox="0 0 17 13" enable-background="new 0 0 17 13" xml:space="preserve">
<path fill="#231F1F" d="M16.469,1.559c-0.593,0.26-1.225,0.432-1.883,0.516c0.677-0.404,1.195-1.04,1.438-1.806
	c-0.632,0.376-1.328,0.642-2.071,0.791c-0.601-0.639-1.455-1.034-2.387-1.034c-1.81,0-3.266,1.468-3.266,3.269
	c0,0.258,0.022,0.507,0.076,0.745c-2.716-0.133-5.12-1.435-6.734-3.418C1.359,1.11,1.193,1.67,1.193,2.272
	c0,1.131,0.583,2.135,1.452,2.716c-0.525-0.01-1.04-0.163-1.477-0.403v0.036c0,1.587,1.133,2.906,2.618,3.21
	C3.521,7.904,3.231,7.939,2.93,7.939c-0.209,0-0.42-0.012-0.618-0.056c0.423,1.293,1.625,2.245,3.053,2.275
	c-1.111,0.87-2.523,1.395-4.051,1.395c-0.269,0-0.525-0.012-0.782-0.046c1.447,0.935,3.163,1.467,5.012,1.467
	c6.012,0,9.299-4.98,9.299-9.298c0-0.145-0.005-0.284-0.012-0.422C15.479,2.795,16.024,2.22,16.469,1.559"/>
<rect x="-247.5" y="-201.5" fill="none" width="512" height="416"/>
</svg>
