<?xml version="1.0" encoding="utf-8"?>
<!-- Generator: Adobe Illustrator 16.0.0, SVG Export Plug-In . SVG Version: 6.00 Build 0)  -->
<!DOCTYPE svg PUBLIC "-//W3C//DTD SVG 1.1//EN" "http://www.w3.org/Graphics/SVG/1.1/DTD/svg11.dtd">
<svg version="1.1" id="Layer_1" xmlns="http://www.w3.org/2000/svg" xmlns:xlink="http://www.w3.org/1999/xlink" x="0px" y="0px"
	 width="20px" height="20px" viewBox="20 20 20 20" enable-background="new 20 20 20 20" xml:space="preserve">
<g>
	<path fill="#231F1F" d="M29.876,29.641c1.297,0,2.42-0.465,3.338-1.382c0.918-0.918,1.382-2.041,1.382-3.337
		s-0.464-2.419-1.382-3.337c-0.918-0.917-2.041-1.383-3.338-1.383c-1.297,0-2.42,0.465-3.337,1.383
		c-0.917,0.918-1.383,2.041-1.383,3.337s0.466,2.42,1.383,3.337C27.457,29.176,28.58,29.641,29.876,29.641z"/>
	<path fill="#231F1F" d="M38.135,35.271c-0.026-0.382-0.079-0.8-0.158-1.24c-0.08-0.443-0.182-0.862-0.306-1.244
		c-0.125-0.396-0.298-0.787-0.511-1.161c-0.221-0.389-0.48-0.728-0.772-1.006c-0.304-0.292-0.677-0.526-1.107-0.697
		c-0.431-0.17-0.906-0.256-1.416-0.256c-0.2,0-0.394,0.082-0.768,0.325c-0.229,0.15-0.498,0.323-0.799,0.515
		c-0.257,0.163-0.604,0.316-1.034,0.455c-0.42,0.135-0.844,0.204-1.265,0.204c-0.419,0-0.846-0.069-1.265-0.204
		c-0.429-0.139-0.776-0.292-1.033-0.455c-0.297-0.19-0.567-0.363-0.8-0.515c-0.373-0.244-0.566-0.325-0.767-0.325
		c-0.51,0-0.985,0.086-1.416,0.256c-0.431,0.17-0.804,0.404-1.107,0.696c-0.292,0.279-0.551,0.617-0.773,1.006
		c-0.213,0.374-0.385,0.766-0.511,1.161c-0.123,0.384-0.225,0.801-0.305,1.244c-0.079,0.44-0.132,0.856-0.159,1.24
		c-0.026,0.373-0.039,0.764-0.039,1.157c0,1.021,0.325,1.85,0.967,2.46c0.634,0.604,1.471,0.909,2.49,0.909h9.436
		c1.02,0,1.857-0.305,2.49-0.909c0.642-0.61,0.968-1.438,0.968-2.46C38.174,36.033,38.161,35.644,38.135,35.271z"/>
</g>
</svg>
